<?xml version="1.0" encoding="UTF-8" standalone="no"?>
<!DOCTYPE svg  PUBLIC '-//W3C//DTD SVG 1.1//EN'  'http://www.w3.org/Graphics/SVG/1.1/DTD/svg11.dtd'>
<svg xmlns="http://www.w3.org/2000/svg">
<defs>
<font id="AlrightSans-Light" horiz-adv-x="678">
<font-face underline-position="-50" font-weight="300" descent="-200" panose-1="0 0 4 0 0 0 0 0 0 0" units-per-em="1000" unicode-range="U+0020-25CA" bbox="-44 -214 1162 880" x-height="511" underline-thickness="50" font-family="Alright Sans Light" ascent="800" cap-height="700"/>
<missing-glyph horiz-adv-x="1000"/>
<glyph glyph-name=".notdef" horiz-adv-x="1000"/>
<glyph glyph-name=".null" horiz-adv-x="0"/>
<glyph glyph-name="nonmarkingreturn" horiz-adv-x="333"/>
<glyph glyph-name="space" horiz-adv-x="255" unicode=" "/>
<glyph glyph-name="exclam" horiz-adv-x="242" unicode="!" d="M91 0v99h60v-99h-60zM105 202l-15 275v223h61v-223l-15 -275h-31z"/>
<glyph glyph-name="quotedbl" horiz-adv-x="390" unicode='&quot;' d="M256 464v236h64l-29 -238zM72 464v236h64l-29 -238z"/>
<glyph glyph-name="numbersign" horiz-adv-x="646" unicode="#" d="M252 357l-28 -171h161l29 171h-162zM70 357v43h142l23 136h47l-23 -136h162l23 136h48l-23 -136h139v-43h-146l-29 -171h141v-43h-148l-23 -143h-48l23 143h-161l-23 -143h-48l23 143h-132v43h139l29 171h-135z"/>
<glyph glyph-name="dollar" horiz-adv-x="525" unicode="$" d="M117 404q0 -47 34.5 -68.5t100.5 -36.5v203q-64 -3 -99.5 -30t-35.5 -68zM420 135q0 48 -34.5 70t-100.5 37v-208q68 4 101.5 31t33.5 70zM54 42l27 41q70 -46 171 -49v216q-35 8 -56 13.5t-49.5 17.5t-44 26.5t-27 39t-11.5 55.5q0 62 49 102t137 44v103h37v-104 q93 -4 164 -38l-22 -42q-65 30 -144 34v-209q44 -10 69.5 -18t57 -25t46.5 -44.5t15 -67.5q0 -63 -47.5 -103.5t-138.5 -44.5v-122h-37v121q-116 4 -196 54z"/>
<glyph glyph-name="percent" horiz-adv-x="724" unicode="%" d="M436 123q0 -41 28 -69t68 -28q41 0 68.5 28t27.5 69t-27.5 69t-68.5 28t-68.5 -28t-27.5 -69zM395 123q0 57 39.5 96t97.5 39q57 0 96.5 -39t39.5 -96t-39.5 -95.5t-96.5 -38.5q-58 0 -97.5 38.5t-39.5 95.5zM96 413q0 -41 28 -69.5t69 -28.5q40 0 68 28.5t28 69.5 t-28 69t-68 28q-41 0 -69 -28t-28 -69zM56 413q0 56 39.5 95t96.5 39q58 0 97.5 -39t39.5 -95q0 -58 -39.5 -96.5t-97.5 -38.5q-57 0 -96.5 39t-39.5 96zM534 536h48l-398 -536h-47z"/>
<glyph glyph-name="ampersand" horiz-adv-x="742" unicode="&amp;" d="M501 130q-170 131 -275 246q-126 -70 -126 -181q0 -66 49 -112.5t137 -46.5q126 0 215 94zM47 192q0 68 41.5 124t109.5 93q-54 72 -54 141q0 67 49 114.5t126 47.5q104 0 167 -73l-36 -32q-52 59 -132 59q-53 0 -86 -34t-33 -81q0 -64 65 -141q103 -115 269 -240 q54 78 54 173h51q0 -111 -65 -203q55 -40 142 -101l-32 -41q-57 40 -142 102q-105 -112 -257 -112q-111 0 -174 60t-63 144z"/>
<glyph glyph-name="quotesingle" horiz-adv-x="206" unicode="&apos;" d="M72 464v236h64l-29 -238z"/>
<glyph glyph-name="parenleft" horiz-adv-x="366" unicode="(" d="M63 277q0 264 191 478h64q-87 -88 -144 -209t-57 -269q0 -270 201 -477h-64q-191 213 -191 477z"/>
<glyph glyph-name="parenright" horiz-adv-x="366" unicode=")" d="M303 277q0 -264 -191 -477h-64q201 207 201 477q0 148 -57 269t-144 209h64q191 -214 191 -478z"/>
<glyph glyph-name="asterisk" horiz-adv-x="419" unicode="*" d="M141 403l52 135l-2 2l-142 -15v51l142 -8l1 2l-56 129l46 14l38 -134l2 -1l107 91l29 -39l-118 -75v-2l122 -73l-30 -40l-109 88l-2 -1l-35 -139z"/>
<glyph glyph-name="plus" horiz-adv-x="613" unicode="+" d="M51 231v50h229v230h53v-230h229v-50h-229v-231h-53v231h-229z"/>
<glyph glyph-name="comma" horiz-adv-x="207" unicode="," d="M73 0v104h61v-93q0 -58 -20 -92t-63 -54l-16 27q58 31 58 108h-20z"/>
<glyph glyph-name="hyphen" horiz-adv-x="373" unicode="-" d="M47 234v50h280v-50h-280z"/>
<glyph glyph-name="period" horiz-adv-x="207" unicode="." d="M73 0v104h61v-104h-61z"/>
<glyph glyph-name="slash" horiz-adv-x="482" unicode="/" d="M-10 -200l446 955h57l-446 -955h-57z"/>
<glyph glyph-name="zero" horiz-adv-x="649" unicode="0" d="M113 268q0 -100 60 -166t151 -66q92 0 152 66t60 166t-60 165.5t-152 65.5q-91 0 -151 -65.5t-60 -165.5zM56 268q0 122 78 200.5t190 78.5q113 0 190.5 -78.5t77.5 -200.5q0 -123 -77.5 -201.5t-190.5 -78.5q-112 0 -190 79t-78 201z"/>
<glyph glyph-name="one" horiz-adv-x="410" unicode="1" d="M271 0h-56v482l-128 -55l-20 43l158 69h46v-539z"/>
<glyph glyph-name="two" horiz-adv-x="592" unicode="2" d="M530 0h-459v22q-1 51 20.5 90.5t57 64t78 44t85.5 35.5t78.5 33t58 42t22.5 58q0 53 -46 82t-115 29q-57 0 -111.5 -22.5t-91.5 -59.5l-34 37q43 41 107 66.5t129 25.5q94 0 156 -42t62 -115q0 -55 -40 -93.5t-97.5 -61t-115.5 -44t-100 -57.5t-44 -86h400v-48z"/>
<glyph glyph-name="three" horiz-adv-x="575" unicode="3" d="M46 -132l21 45q86 -41 178 -41q102 0 168 45t66 123q0 69 -56.5 104t-138.5 35h-90v46h88q71 0 120 37t49 106q0 58 -50 95.5t-134 37.5q-53 0 -104 -22.5t-87 -58.5l-33 38q98 91 226 91q107 0 172.5 -50.5t65.5 -128.5q0 -64 -37 -106t-101 -58q72 -12 119 -55t47 -113 q0 -100 -82 -156.5t-207 -56.5q-112 0 -200 43z"/>
<glyph glyph-name="four" horiz-adv-x="624" unicode="4" d="M95 47h326v430zM53 0l-18 49l376 488h65v-490h119v-47h-119v-163h-55v163h-368z"/>
<glyph glyph-name="five" horiz-adv-x="566" unicode="5" d="M51 -131l21 45q82 -42 170 -42q98 0 160 50.5t62 134.5q0 75 -55 121.5t-145 46.5q-56 0 -143 -30l-36 23l11 318h382v-46h-332l-8 -248q76 30 138 30q108 0 176 -59t68 -156q0 -108 -78.5 -170.5t-199.5 -62.5q-110 0 -191 45z"/>
<glyph glyph-name="six" horiz-adv-x="622" unicode="6" d="M120 286q7 -114 58.5 -182.5t148.5 -68.5q84 0 134.5 53t50.5 127q0 78 -49.5 126t-128.5 48q-62 0 -122.5 -30t-91.5 -73zM62 327q0 101 25.5 178t69 120.5t95.5 65t111 21.5q89 0 163 -33l-23 -44q-68 30 -140 30q-48 0 -90 -18.5t-77.5 -56t-56 -103.5t-20.5 -153 q37 43 98 71.5t124 28.5q100 0 163 -60t63 -159q0 -94 -65.5 -160.5t-175.5 -66.5q-91 0 -152 47.5t-86.5 121t-25.5 170.5z"/>
<glyph glyph-name="seven" horiz-adv-x="571" unicode="7" d="M160 -164l303 652h-417v48h476v-40l-301 -660h-61z"/>
<glyph glyph-name="eight" horiz-adv-x="649" unicode="8" d="M325 385q80 8 129 45.5t49 97.5q0 61 -50.5 99.5t-127.5 38.5t-127.5 -38.5t-50.5 -99.5t49 -98t129 -45zM113 180q0 -67 59.5 -106.5t152.5 -39.5t152 39.5t59 106.5q0 68 -60.5 108.5t-150.5 50.5q-91 -10 -151.5 -50.5t-60.5 -108.5zM57 179q0 73 53.5 120t138.5 65 q-71 15 -115 58t-44 106q0 83 66.5 133.5t168.5 50.5t168 -50.5t66 -133.5q0 -63 -44 -106t-114 -58q84 -18 137.5 -65t53.5 -120q0 -89 -74.5 -140t-192.5 -51q-119 0 -193.5 51t-74.5 140z"/>
<glyph glyph-name="nine" horiz-adv-x="619" unicode="9" d="M289 146q63 0 123 30t91 73q-8 113 -60.5 182t-149.5 69q-86 0 -136 -52.5t-50 -127.5q0 -77 51.5 -125.5t130.5 -48.5zM84 -131l26 42q64 -41 148 -41q49 0 91 18t77.5 56t56 103.5t21.5 152.5q-38 -43 -98.5 -71t-122.5 -28q-101 0 -166 60t-65 159q0 94 65.5 160.5 t175.5 66.5q136 0 202 -94t66 -245q0 -101 -25.5 -178t-69 -120.5t-96 -65t-112.5 -21.5q-97 1 -174 46z"/>
<glyph glyph-name="colon" horiz-adv-x="207" unicode=":" d="M73 407v104h61v-104h-61zM73 0v104h61v-104h-61z"/>
<glyph glyph-name="semicolon" horiz-adv-x="207" unicode=";" d="M73 407v104h61v-104h-61zM73 0v104h61v-93q0 -58 -20 -92t-63 -54l-16 27q58 31 58 108h-20z"/>
<glyph glyph-name="less" horiz-adv-x="638" unicode="&lt;" d="M573 58v-58l-530 229v53l530 229v-59l-466 -196z"/>
<glyph glyph-name="equal" horiz-adv-x="613" unicode="=" d="M51 111v50h511v-50h-511zM51 351v50h511v-50h-511z"/>
<glyph glyph-name="greater" horiz-adv-x="638" unicode="&gt;" d="M65 0v58l466 198l-466 196v59l530 -229v-53z"/>
<glyph glyph-name="question" horiz-adv-x="510" unicode="?" d="M185 0v99h60v-99h-60zM192 202q-1 1 -1 16q0 51 21.5 88.5t52 60.5t61 44t52 52t21.5 72q0 56 -44 92.5t-114 36.5q-91 0 -162 -73l-37 34q84 87 199 87q97 0 155.5 -49t58.5 -126q0 -42 -16 -76t-40 -54.5t-52.5 -42t-52.5 -39.5t-40.5 -47t-16.5 -65v-11h-45z"/>
<glyph glyph-name="at" horiz-adv-x="838" unicode="@" d="M286 225q0 -45 20.5 -71.5t58.5 -26.5q41 0 76.5 28.5t50.5 81.5l44 153q-33 45 -88 45q-71 0 -116.5 -68t-45.5 -142zM69 279q0 150 106.5 256.5t257.5 106.5q149 0 243 -92t94 -233q0 -110 -57.5 -175.5t-132.5 -65.5q-44 0 -68.5 24t-26.5 61q-50 -71 -129 -71 q-52 0 -83.5 36t-31.5 97q0 92 57 171t149 79q61 0 100 -51l13 41h40l-70 -247q-7 -22 -7 -44q0 -62 62 -62q59 0 104.5 57t45.5 150q0 128 -84 208.5t-218 80.5q-137 0 -233 -95.5t-96 -231.5q0 -135 96.5 -231t232.5 -96q90 0 170 48l20 -30q-87 -53 -190 -53 q-151 0 -257.5 106t-106.5 256z"/>
<glyph glyph-name="A" d="M338 646l-153 -410h308l-153 410h-2zM35 0l269 700h71l268 -700h-62l-71 189h-343l-70 -189h-62z" unicode="A"/>
<glyph glyph-name="B" horiz-adv-x="672" unicode="B" d="M146 380h210q83 0 125.5 39.5t42.5 99.5q0 58 -42.5 95t-125.5 37h-210v-271zM146 49h236q82 0 126 37.5t44 109.5q0 64 -47.5 100.5t-123.5 36.5h-235v-284zM90 0v700h268q110 0 167 -50t57 -128q0 -61 -33.5 -102.5t-88.5 -58.5q69 -16 109.5 -58.5t40.5 -109.5 q0 -92 -60 -142.5t-168 -50.5h-292z"/>
<glyph glyph-name="C" horiz-adv-x="712" unicode="C" d="M60 359q0 157 96.5 255t251.5 98q130 0 223 -70l-31 -43q-83 63 -191 63q-131 0 -211.5 -83.5t-80.5 -219.5q0 -145 80 -233t212 -88q122 0 202 75l36 -38q-93 -87 -240 -87q-156 0 -251.5 102t-95.5 269z"/>
<glyph glyph-name="D" horiz-adv-x="708" unicode="D" d="M146 49h137q153 0 231 81t78 227q0 138 -80 216t-229 78h-137v-602zM90 0v700h190q179 0 274 -90.5t95 -252.5q0 -171 -93 -264t-276 -93h-190z"/>
<glyph glyph-name="E" horiz-adv-x="634" unicode="E" d="M90 0v700h467v-51h-411v-268h371v-48h-371v-282h417v-51h-473z"/>
<glyph glyph-name="F" horiz-adv-x="615" unicode="F" d="M90 0v700h459v-51h-403v-272h358v-49h-358v-328h-56z"/>
<glyph glyph-name="G" horiz-adv-x="724" unicode="G" d="M60 359q0 157 96 255t252 98q129 0 225 -61l-29 -42q-84 53 -195 53q-130 0 -210.5 -84t-80.5 -219q0 -148 78 -234.5t213 -86.5q111 0 183 46v228h-211v45h264v-302q-101 -67 -237 -67q-160 0 -254 100.5t-94 270.5z"/>
<glyph glyph-name="H" horiz-adv-x="697" unicode="H" d="M90 0v700h56v-318h405v318h57v-700h-57v331h-405v-331h-56z"/>
<glyph glyph-name="I" horiz-adv-x="235" unicode="I" d="M90 0v700h56v-700h-56z"/>
<glyph glyph-name="J" horiz-adv-x="566" unicode="J" d="M54 135l48 23q18 -51 57.5 -85t101.5 -34q81 0 121.5 51t40.5 138v472h57v-472q0 -112 -55 -176t-162 -64q-80 0 -132.5 41.5t-76.5 105.5z"/>
<glyph glyph-name="K" horiz-adv-x="663" unicode="K" d="M90 0v700h56v-423l373 423h69l-230 -260l258 -440h-68l-227 398l-175 -197v-201h-56z"/>
<glyph glyph-name="L" horiz-adv-x="604" unicode="L" d="M90 0v700h56v-649h410v-51h-466z"/>
<glyph glyph-name="M" horiz-adv-x="845" unicode="M" d="M90 0v700h67l266 -392l266 392h67v-700h-55v626l-278 -406l-278 408v-628h-55z"/>
<glyph glyph-name="N" horiz-adv-x="718" unicode="N" d="M90 0v700h62l421 -619v619h55v-700h-63l-420 618v-618h-55z"/>
<glyph glyph-name="O" horiz-adv-x="808" unicode="O" d="M118 355q0 -145 81.5 -231t204.5 -86t204.5 86t81.5 231q0 137 -82.5 222t-203.5 85t-203.5 -85t-82.5 -222zM60 355q0 159 99 258t245 99t245 -99t99 -258q0 -167 -97.5 -267t-246.5 -100t-246.5 100t-97.5 267z"/>
<glyph glyph-name="P" horiz-adv-x="655" unicode="P" d="M146 339h214q89 0 132.5 46.5t43.5 110.5q0 65 -42.5 110t-132.5 45h-215v-312zM90 0v700h271q119 0 175 -59t56 -144q0 -38 -12.5 -73t-38.5 -65.5t-72.5 -49t-108.5 -18.5h-214v-291h-56z"/>
<glyph glyph-name="Q" horiz-adv-x="817" unicode="Q" d="M455 223l32 36l134 -121q69 87 69 217q0 137 -82.5 222t-203.5 85t-203.5 -85t-82.5 -222q0 -145 81.5 -231t204.5 -86q110 0 187 68zM60 355q0 159 99 258t245 99t245 -99t99 -258q0 -152 -85 -253l95 -81l-33 -35l-94 83q-93 -81 -227 -81q-149 0 -246.5 100t-97.5 267 z"/>
<glyph glyph-name="R" horiz-adv-x="673" unicode="R" d="M146 339h226q89 0 132.5 46.5t43.5 110.5q0 65 -42.5 110t-131.5 45h-228v-312zM90 0v700h284q118 0 174.5 -59t56.5 -144q0 -68 -40.5 -124t-118.5 -74l156 -299h-63l-147 292h-17h-229v-292h-56z"/>
<glyph glyph-name="S" horiz-adv-x="607" unicode="S" d="M57 58l29 45q94 -64 220 -64q91 0 138 38t47 100q0 44 -23.5 73t-60.5 44t-82 26t-90.5 24t-82.5 32.5t-60.5 57.5t-23.5 93q0 80 62.5 132.5t169.5 52.5q120 0 222 -50l-23 -48q-94 47 -197 47q-81 0 -128 -37.5t-47 -95.5q0 -44 23.5 -73.5t60.5 -44t82.5 -25.5 t90.5 -24t82 -32t60.5 -57.5t23.5 -94.5q0 -84 -62.5 -136.5t-181.5 -52.5q-73 0 -139 20t-110 50z"/>
<glyph glyph-name="T" horiz-adv-x="644" unicode="T" d="M294 0v649h-263v51h582v-51h-263v-649h-56z"/>
<glyph glyph-name="U" horiz-adv-x="712" unicode="U" d="M87 256v444h57v-444q0 -103 60 -160.5t152 -57.5t152.5 57.5t60.5 160.5v444h57v-444q0 -129 -75.5 -198.5t-194.5 -69.5q-118 0 -193.5 69.5t-75.5 198.5z"/>
<glyph glyph-name="V" horiz-adv-x="663" unicode="V" d="M297 0l-262 700h62l233 -639h2l234 639h63l-264 -700h-68z"/>
<glyph glyph-name="W" horiz-adv-x="1023" unicode="W" d="M260 0l-224 700h61l196 -627h2l187 627h60l187 -627h2l196 627h61l-225 -700h-65l-186 621h-2l-185 -621h-65z"/>
<glyph glyph-name="X" horiz-adv-x="674" unicode="X" d="M43 0l258 358l-246 342h70l213 -299l212 299h70l-247 -342l258 -358h-71l-223 314l-224 -314h-70z"/>
<glyph glyph-name="Y" horiz-adv-x="651" unicode="Y" d="M297 0v287l-263 413h67l224 -360h2l223 360h67l-263 -413v-287h-57z"/>
<glyph glyph-name="Z" horiz-adv-x="644" unicode="Z" d="M60 0v52l447 597h-446v51h514v-52l-445 -596h456v-52h-526z"/>
<glyph glyph-name="bracketleft" horiz-adv-x="366" unicode="[" d="M143 -156h156v-44h-212v955h212v-44h-156v-867z"/>
<glyph glyph-name="backslash" horiz-adv-x="482" unicode="\" d="M46 755l446 -955h-57l-446 955h57z"/>
<glyph glyph-name="bracketright" horiz-adv-x="366" unicode="]" d="M67 -156h156v867h-156v44h212v-955h-212v44z"/>
<glyph glyph-name="asciicircum" horiz-adv-x="524" unicode="^" d="M97 562l140 173h51l140 -173h-50l-115 119l-118 -119h-48z"/>
<glyph glyph-name="underscore" horiz-adv-x="545" unicode="_" d="M0 -12h545v-51h-545v51z"/>
<glyph glyph-name="grave" horiz-adv-x="646" unicode="`" d="M374 566l-141 137l41 32l139 -169h-39z"/>
<glyph glyph-name="a" horiz-adv-x="514" unicode="a" d="M107 116q0 -38 27.5 -61t73.5 -23q51 0 93.5 22t65.5 56v136q-260 -11 -260 -130zM52 113q0 158 315 171v91q0 45 -28.5 73t-85.5 28q-71 0 -161 -46l-23 45q94 48 185 48q85 0 127 -40.5t42 -108.5v-274q0 -59 54 -59v-42q-86 0 -104 69q-68 -80 -175 -80q-66 0 -106 34 t-40 91z"/>
<glyph glyph-name="b" horiz-adv-x="580" unicode="b" d="M143 120q71 -86 160 -86q78 0 120.5 61.5t42.5 167.5q0 99 -44 156.5t-120 57.5q-83 0 -159 -86v-271zM88 0v755h55v-315q79 83 169 83q95 0 152.5 -70t57.5 -190q0 -128 -55.5 -201.5t-154.5 -73.5q-94 0 -171 85l-6 -73h-47z"/>
<glyph glyph-name="c" horiz-adv-x="508" unicode="c" d="M57 262q0 119 65.5 190t169.5 71q91 0 158 -50l-30 -40q-57 42 -127 42q-80 0 -130 -58t-50 -155q0 -105 49 -166t131 -61q75 0 136 51l33 -36q-73 -62 -170 -62q-106 0 -170.5 74t-64.5 200z"/>
<glyph glyph-name="d" horiz-adv-x="579" unicode="d" d="M277 34q87 0 160 86v271q-77 86 -159 86q-76 0 -120.5 -57.5t-44.5 -156.5q0 -106 43 -167.5t121 -61.5zM267 -12q-98 0 -153.5 73.5t-55.5 201.5q0 121 57 190.5t153 69.5q90 0 169 -83v315h55v-755h-46l-7 73q-78 -85 -172 -85z"/>
<glyph glyph-name="e" horiz-adv-x="559" unicode="e" d="M297 479q-72 0 -121.5 -47t-59.5 -128h328v7q0 75 -36 121.5t-111 46.5zM58 262q0 118 67 189.5t171 71.5q101 0 151.5 -61t50.5 -162q0 -17 -2 -37h-383v-2q0 -108 47 -167t139 -59q83 0 154 49l27 -39q-81 -57 -183 -57q-116 0 -177.5 72t-61.5 202z"/>
<glyph glyph-name="f" horiz-adv-x="360" unicode="f" d="M120 0v464h-95v44h95v56q0 197 189 197q36 0 66 -10l-13 -43q-26 7 -52 7q-66 0 -100.5 -35t-34.5 -115v-57h147v-44h-147v-464h-55z"/>
<glyph glyph-name="g" horiz-adv-x="564" unicode="g" d="M286 7q-64 2 -106 13q-39 -12 -63.5 -36.5t-24.5 -58.5q0 -44 47.5 -68.5t134.5 -24.5q196 0 196 89q0 43 -48 62.5t-136 23.5zM259 191q66 0 110 41.5t44 104.5q0 61 -44.5 102t-109.5 41t-108.5 -41t-43.5 -102q0 -63 43.5 -104.5t108.5 -41.5zM39 -76q0 74 94 113 q-44 26 -44 73q0 46 46 74q-82 54 -82 153q0 80 59 133t147 53q78 0 134 -42q56 43 133 43h9v-45h-11q-66 0 -106 -20q49 -51 49 -122q0 -82 -61 -135t-147 -53q-48 0 -92 19q-33 -20 -33 -50q0 -20 11 -32.5t37 -19t49 -9t67 -4.5q225 -13 225 -128q0 -65 -63 -100 t-184 -35q-114 0 -175.5 35t-61.5 99z"/>
<glyph glyph-name="h" horiz-adv-x="570" unicode="h" d="M88 0v755h55v-321q82 89 186 89q159 0 159 -171v-352h-55v353q0 124 -113 124q-99 0 -177 -91v-386h-55z"/>
<glyph glyph-name="i" horiz-adv-x="231" unicode="i" d="M88 658v81h55v-81h-55zM88 0v509h55v-509h-55z"/>
<glyph glyph-name="j" horiz-adv-x="239" unicode="j" d="M96 658v81h55v-81h-55zM96 -34v543h55v-541q0 -178 -144 -178q-21 0 -51 7l11 45q18 -5 35 -5q94 0 94 129z"/>
<glyph glyph-name="k" horiz-adv-x="515" unicode="k" d="M88 0v755h55v-526l254 282h65l-154 -167l182 -344h-63l-155 304l-129 -141v-163h-55z"/>
<glyph glyph-name="l" horiz-adv-x="231" unicode="l" d="M88 0v755h55v-755h-55z"/>
<glyph glyph-name="m" horiz-adv-x="881" unicode="m" d="M84 0v511h50l5 -71q81 83 179 83q107 0 140 -88q84 88 188 88q79 0 116 -45t37 -125v-353h-56v353q0 124 -107 124q-94 0 -168 -85q3 -21 3 -42v-350h-56v353q0 124 -107 124q-95 0 -169 -87v-390h-55z"/>
<glyph glyph-name="n" horiz-adv-x="566" unicode="n" d="M84 0v511h50l5 -76q83 88 187 88q159 0 159 -171v-352h-56v353q0 124 -113 124q-102 0 -177 -93v-384h-55z"/>
<glyph glyph-name="o" horiz-adv-x="594" unicode="o" d="M114 262q0 -104 50 -166.5t134 -62.5q83 0 132.5 62.5t49.5 166.5q0 97 -51 156t-131 59q-81 0 -132.5 -59t-51.5 -156zM58 262q0 117 67.5 189t172.5 72t172 -72t67 -189q0 -125 -66 -199.5t-173 -74.5q-109 0 -174.5 74.5t-65.5 199.5z"/>
<glyph glyph-name="p" horiz-adv-x="579" unicode="p" d="M142 120q71 -86 160 -86q78 0 121 61.5t43 167.5q0 99 -44.5 156.5t-120.5 57.5q-83 0 -159 -86v-271zM142 72v-272h-55v711h48l6 -73q78 85 170 85q96 0 153 -69.5t57 -190.5q0 -128 -55.5 -201.5t-153.5 -73.5q-94 0 -170 84z"/>
<glyph glyph-name="q" horiz-adv-x="579" unicode="q" d="M267 -12q-98 0 -153.5 73.5t-55.5 201.5q0 121 57 190.5t153 69.5q91 0 169 -85l7 73h48v-711h-55v272q-77 -84 -170 -84zM277 34q87 0 160 86v271q-77 86 -159 86q-76 0 -120.5 -57.5t-44.5 -156.5q0 -106 43 -167.5t121 -61.5z"/>
<glyph glyph-name="r" horiz-adv-x="385" unicode="r" d="M84 0v511h49l6 -89q59 101 161 101q36 0 62 -8l-11 -53q-29 9 -57 9q-93 0 -155 -107v-364h-55z"/>
<glyph glyph-name="s" horiz-adv-x="455" unicode="s" d="M42 37l26 42q68 -45 160 -45q63 0 96 25t33 69q0 35 -23 57.5t-57 31.5t-74 20.5t-74 24t-57 43t-23 76.5q0 64 48.5 103t127.5 39q86 0 165 -38l-22 -43q-70 35 -143 35q-55 0 -88 -26t-33 -68q0 -35 23 -57t57 -30.5t74 -20t74 -24t57 -43.5t23 -78q0 -66 -48 -104 t-136 -38q-106 0 -186 49z"/>
<glyph glyph-name="t" horiz-adv-x="370" unicode="t" d="M119 130v336h-94v45h94v160h55v-160h150v-45h-150v-336q0 -96 80 -96q39 0 74 24l23 -38q-48 -32 -102 -32q-130 0 -130 142z"/>
<glyph glyph-name="u" horiz-adv-x="567" unicode="u" d="M82 159v352h55v-353q0 -125 113 -125q101 0 178 93v385h55v-511h-48l-7 75q-83 -87 -187 -87q-159 0 -159 171z"/>
<glyph glyph-name="v" horiz-adv-x="486" unicode="v" d="M212 0l-186 511h59l158 -449h2l158 449h57l-187 -511h-61z"/>
<glyph glyph-name="w" horiz-adv-x="797" unicode="w" d="M201 0l-175 511h58l148 -445h2l138 445h53l139 -445h2l148 445h57l-175 -511h-60l-137 435h-2l-136 -435h-60z"/>
<glyph glyph-name="x" horiz-adv-x="495" unicode="x" d="M33 0l181 258l-172 253h62l144 -214l143 214h62l-171 -253l180 -258h-62l-153 220l-152 -220h-62z"/>
<glyph glyph-name="y" horiz-adv-x="487" unicode="y" d="M36 -150q32 -13 56 -13q32 0 53 15t35 53l38 99l-192 507h59l160 -435h2l156 435h58l-227 -613q-22 -60 -56.5 -84t-84.5 -24q-38 0 -73 14z"/>
<glyph glyph-name="z" horiz-adv-x="490" unicode="z" d="M54 0v42l311 422h-303v47h371v-43l-310 -422h321v-46h-390z"/>
<glyph glyph-name="braceleft" horiz-adv-x="433" unicode="{" d="M317 -157h53v-43h-55q-148 0 -148 137v210q0 52 -21 75.5t-73 23.5h-39v51h39q52 0 73 23.5t21 75.5v222q0 137 148 137h55v-43h-53q-50 0 -72.5 -22.5t-22.5 -72.5v-218q0 -108 -81 -127v-1q81 -19 81 -127v-206q0 -50 22.5 -72.5t72.5 -22.5z"/>
<glyph glyph-name="bar" horiz-adv-x="266" unicode="|" d="M107 -200v955h53v-955h-53z"/>
<glyph glyph-name="braceright" horiz-adv-x="433" unicode="}" d="M63 -157h53q50 0 72.5 22.5t22.5 72.5v206q0 108 81 127v1q-81 19 -81 127v218q0 50 -22.5 72.5t-72.5 22.5h-53v43h55q148 0 148 -137v-222q0 -52 21 -75.5t73 -23.5h39v-51h-39q-52 0 -73 -23.5t-21 -75.5v-210q0 -137 -148 -137h-55v43z"/>
<glyph glyph-name="asciitilde" horiz-adv-x="568" unicode="~" d="M77 199q-1 8 -1 19q0 58 28.5 92t76.5 34q34 0 71.5 -28t72.5 -56t62 -28q28 0 45 19.5t17 58.5q0 2 -0.5 7t-0.5 8h43q1 -8 1 -19q0 -59 -28 -92.5t-76 -33.5q-35 0 -72.5 28t-72 56t-61.5 28q-62 0 -62 -81v-12h-43z"/>
<glyph glyph-name="nbspace" horiz-adv-x="255" unicode=" "/>
<glyph glyph-name="exclamdown" horiz-adv-x="242" unicode="¡" d="M91 412v99h60v-99h-60zM90 34l15 275h31l15 -275v-223h-61v223z"/>
<glyph glyph-name="cent" horiz-adv-x="583" unicode="¢" d="M104 275q0 -83 38 -142.5t106 -83.5l102 451q-2 0 -6.5 0.5t-6.5 0.5q-104 0 -168.5 -62.5t-64.5 -163.5zM49 275q0 121 79.5 197t207.5 76q15 0 22 -1l24 105h40l-25 -110q71 -12 125 -50l-29 -39q-49 33 -109 44l-104 -457q30 -5 57 -5q101 0 166 57l33 -35 q-78 -69 -200 -69q-34 0 -64 6l-29 -127h-40l33 135q-87 28 -137 100t-50 173z"/>
<glyph glyph-name="sterling" horiz-adv-x="568" unicode="£" d="M142 24q28 0 57.5 16.5t45.5 46.5q-61 47 -103 47q-27 0 -44.5 -16t-17.5 -39t16.5 -39t45.5 -16zM97 263v38h90q-42 64 -42 120q0 55 39.5 91t109.5 36q58 0 96 -24.5t56 -58.5l-44 -20q-32 58 -106 58q-46 0 -71.5 -23t-25.5 -61q0 -48 46 -118h134v-38h-109 q39 -62 39 -120q0 -22 -9 -51q78 -59 131 -59q73 0 73 83v6h51q0 -2 0.5 -7t0.5 -8q0 -57 -30.5 -88t-85.5 -31q-70 0 -159 70q-24 -33 -62 -51.5t-76 -18.5q-47 0 -74.5 26t-27.5 65t29 65t72 26q49 0 115 -46q0 3 0.5 7.5t0.5 7.5q0 52 -44 121q-2 2 -2 3h-115z"/>
<glyph glyph-name="currency" horiz-adv-x="652" unicode="¤" d="M117 265q0 -86 61.5 -147.5t147.5 -61.5q87 0 148.5 61.5t61.5 147.5q0 87 -61.5 148.5t-148.5 61.5q-86 0 -147.5 -61.5t-61.5 -148.5zM65 265q0 100 66 174l-56 60l31 30l56 -61q72 58 164 58t164 -58l57 61l31 -30l-58 -60q67 -73 67 -174q0 -99 -66 -173l57 -60 l-31 -29l-57 60q-72 -58 -164 -58q-93 0 -164 57l-56 -59l-31 29l56 60q-66 74 -66 173z"/>
<glyph glyph-name="yen" horiz-adv-x="563" unicode="¥" d="M64 199v38h188l-219 299h67l180 -250h1l182 250h66l-221 -299h187v-38h-187v-69h187v-37h-187v-93h-56v93h-188v37h188v69h-188z"/>
<glyph glyph-name="brokenbar" horiz-adv-x="266" unicode="¦" d="M107 344v411h53v-411h-53zM107 168h53v-368h-53v368z"/>
<glyph glyph-name="section" horiz-adv-x="527" unicode="§" d="M406 140q0 37 -25.5 63.5t-57 39t-80.5 29.5t-75 31q-47 -33 -47 -80q0 -37 25.5 -64t57 -39t80.5 -29t75 -31q47 33 47 80zM457 146q0 -63 -65 -107q43 -35 43 -90q0 -62 -47.5 -96t-130.5 -34q-103 0 -176 76l38 32q59 -64 140 -64q57 0 90 21.5t33 63.5q0 37 -32 61 t-78 38.5t-91.5 31.5t-77.5 51.5t-32 86.5q0 63 64 107q-43 35 -43 90q0 62 47.5 96t130.5 34q104 0 177 -76l-39 -32q-56 63 -140 63q-57 0 -90 -21.5t-33 -62.5q0 -37 32 -61t78 -38.5t92 -31.5t78 -51.5t32 -86.5z"/>
<glyph glyph-name="dieresis" horiz-adv-x="651" unicode="¨" d="M207 612v65h56v-65h-56zM388 612v65h56v-65h-56z"/>
<glyph glyph-name="copyright" horiz-adv-x="869" unicode="©" d="M106 279q0 -135 96.5 -231t232.5 -96q135 0 231.5 96t96.5 231q0 136 -96 231.5t-232 95.5q-137 0 -233 -95.5t-96 -231.5zM70 279q0 150 106.5 256.5t257.5 106.5t258 -106.5t107 -256.5t-107 -256t-258 -106t-257.5 106t-106.5 256zM236 278q0 87 59 145t147 58 q74 0 132 -41l-26 -34q-46 34 -105 34q-70 0 -116 -46t-46 -116q0 -75 45 -119.5t117 -44.5q68 0 111 40l28 -29q-54 -52 -140 -52q-92 0 -149 56t-57 149z"/>
<glyph glyph-name="ordfeminine" horiz-adv-x="368" unicode="ª" d="M83 426q0 -25 18.5 -40t48.5 -15q68 0 108 49v92q-175 -7 -175 -86zM40 424q0 110 218 119v59q0 30 -19 48t-58 18q-48 0 -112 -32l-17 36q62 33 130 33q60 0 89 -28t29 -75v-185q0 -40 38 -40v-33q-61 0 -76 45q-44 -53 -118 -53q-47 0 -75.5 24t-28.5 64z"/>
<glyph glyph-name="guillemotleft" horiz-adv-x="593" unicode="«" d="M352 256l180 -226l-39 -30l-201 256l201 255l39 -31zM112 256l180 -226l-39 -30l-201 256l201 255l39 -31z"/>
<glyph glyph-name="logicalnot" horiz-adv-x="602" unicode="¬" d="M63 487v49h476v-248h-58v199h-418z"/>
<glyph glyph-name="registered" horiz-adv-x="869" unicode="®" d="M333 276h128q52 0 77 23.5t25 55.5q0 34 -23.5 57t-76.5 23h-130v-159zM288 84v389h178q73 0 107.5 -34t34.5 -84q0 -37 -24 -68t-72 -42l95 -161h-51l-88 156h-135v-156h-45zM106 279q0 -135 96 -230.5t232 -95.5t232.5 96t96.5 230q0 136 -96.5 231.5t-232.5 95.5 t-232 -95.5t-96 -231.5zM70 279q0 150 106.5 256.5t257.5 106.5t258 -106.5t107 -256.5t-107 -256t-258 -106t-257.5 106t-106.5 256z"/>
<glyph glyph-name="macron" horiz-adv-x="650" unicode="¯" d="M186 623v42h281v-42h-281z"/>
<glyph glyph-name="degree" horiz-adv-x="413" unicode="°" d="M207 441q48 0 81.5 33.5t33.5 82.5t-34 82.5t-81 33.5q-48 0 -82 -34t-34 -82q0 -49 34 -82.5t82 -33.5zM207 402q-65 0 -111 44.5t-46 110.5q0 65 46.5 110t110.5 45t110 -45t46 -110q0 -67 -45.5 -111t-110.5 -44z"/>
<glyph glyph-name="plusminus" horiz-adv-x="613" unicode="±" d="M51 0v44h229v202h-229v49h229v216h53v-216h229v-49h-229v-202h229v-44h-511z"/>
<glyph glyph-name="two.sups" horiz-adv-x="328" unicode="²" d="M41 500v21q-1 48 20.5 80.5t52 49t61.5 30t53 32.5t22 47t-22.5 45.5t-63.5 17.5q-54 0 -95 -43l-28 25q51 53 125 53q60 0 93 -27.5t33 -70.5q0 -35 -21.5 -60t-52 -39l-61 -28t-52 -38t-21.5 -59h208v-36h-251z"/>
<glyph glyph-name="three.sups" horiz-adv-x="326" unicode="³" d="M40 518l15 34q42 -23 93 -23q46 0 76 20.5t30 54.5q0 31 -24.5 47t-63.5 16h-49v34h47q35 0 56 16.5t21 46.5q0 25 -22.5 42t-60.5 17q-56 0 -97 -41l-24 27q51 49 121 49q55 0 89.5 -25.5t34.5 -65.5q0 -60 -61 -81q34 -8 54.5 -29t20.5 -54q0 -51 -42 -80t-106 -29 q-60 0 -108 24z"/>
<glyph glyph-name="acute" horiz-adv-x="646" unicode="´" d="M233 566l139 169l41 -32l-141 -137h-39z"/>
<glyph glyph-name="mu" horiz-adv-x="529" unicode="µ" d="M117 54l-5 -254h-49v736h56v-388q5 -114 113 -114q101 0 178 92v410h56v-536h-50l-5 74q-78 -85 -175 -85q-94 0 -119 65z"/>
<glyph glyph-name="paragraph" horiz-adv-x="665" unicode="¶" d="M342 0v293h-45q-78 0 -132.5 32t-76.5 76t-22 93q0 84 56.5 145t172.5 61h275v-700h-51v656h-126v-656h-51z"/>
<glyph glyph-name="periodcentered" horiz-adv-x="207" unicode="·" d="M73 204v104h61v-104h-61z"/>
<glyph glyph-name="cedilla" horiz-adv-x="646" unicode="¸" d="M248 -191q108 88 125 196h38q-14 -127 -117 -219z"/>
<glyph glyph-name="one.sups" horiz-adv-x="273" unicode="¹" d="M143 500v311l-80 -42l-17 31l104 52h33v-352h-40z"/>
<glyph glyph-name="ordmasculine" horiz-adv-x="422" unicode="º" d="M84 525q0 -70 34 -111.5t92 -41.5q56 0 90 41.5t34 111.5q0 64 -34.5 104t-89.5 40t-90.5 -40t-35.5 -104zM42 525q0 81 47 130.5t121 49.5q73 0 120 -49.5t47 -130.5q0 -86 -46 -137.5t-121 -51.5q-76 0 -122 51t-46 138z"/>
<glyph glyph-name="guillemotright" horiz-adv-x="593" unicode="»" d="M302 30l180 226l-180 224l39 31l201 -255l-201 -256zM61 30l180 226l-180 224l39 31l201 -255l-201 -256z"/>
<glyph glyph-name="onequarter" horiz-adv-x="717" unicode="¼" d="M148 350v311l-80 -42l-17 31l104 52h33v-352h-40zM69 0l582 700h49l-581 -700h-50zM462 112h150v196zM431 78l-13 32l186 242h48v-240h57v-34h-57v-78h-40v78h-181z"/>
<glyph glyph-name="onehalf" horiz-adv-x="766" unicode="½" d="M148 350v311l-80 -42l-17 31l104 52h33v-352h-40zM69 0l582 700h49l-581 -700h-50zM507 0v21q-1 48 20.5 80.5t52 49t61.5 30t53 32.5t22 47t-22.5 45.5t-63.5 17.5q-54 0 -95 -43l-28 25q51 53 125 53q60 0 93 -27.5t33 -70.5q0 -35 -21.5 -60t-52 -39l-61 -28t-52 -38 t-21.5 -59h208v-36h-251z"/>
<glyph glyph-name="threequarters" horiz-adv-x="725" unicode="¾" d="M76 0l582 700h49l-581 -700h-50zM472 112h150v196zM441 78l-13 32l186 242h48v-240h57v-34h-57v-78h-40v78h-181zM21 368l15 34q42 -23 93 -23q46 0 76 20.5t30 54.5q0 31 -24.5 47t-63.5 16h-49v34h47q35 0 56 16.5t21 46.5q0 25 -22.5 42t-60.5 17q-56 0 -97 -41 l-24 27q51 49 121 49q55 0 89.5 -25.5t34.5 -65.5q0 -60 -61 -81q34 -8 54.5 -29t20.5 -54q0 -51 -42 -80t-106 -29q-60 0 -108 24z"/>
<glyph glyph-name="questiondown" horiz-adv-x="491" unicode="¿" d="M325 511v-99h-60v99h60zM318 309q1 -1 1 -16q0 -51 -21.5 -88.5t-52 -60.5t-61 -44t-52 -52t-21.5 -72q0 -56 44 -92.5t114 -36.5q91 0 162 73l37 -34q-84 -87 -199 -87q-97 0 -155.5 49t-58.5 126q0 42 16 76t40 54.5t52.5 42t52.5 39.5t40.5 47t16.5 65v11h45z"/>
<glyph glyph-name="Agrave" d="M325 755l-111 91l45 34l111 -125h-45zM338 646l-153 -410h308l-153 410h-2zM35 0l269 700h71l268 -700h-62l-71 189h-343l-70 -189h-62z" unicode="À"/>
<glyph glyph-name="Aacute" d="M308 755l111 125l45 -34l-112 -91h-44zM338 646l-153 -410h308l-153 410h-2zM35 0l269 700h71l268 -700h-62l-71 189h-343l-70 -189h-62z" unicode="Á"/>
<glyph glyph-name="Acircumflex" d="M181 755l128 108h60l128 -108h-41l-116 73h-1l-117 -73h-41zM338 646l-153 -410h308l-153 410h-2zM35 0l269 700h71l268 -700h-62l-71 189h-343l-70 -189h-62z" unicode="Â"/>
<glyph glyph-name="Atilde" d="M201 764q-1 6 -1 19q0 39 20.5 60.5t52.5 21.5t71.5 -35t58.5 -35q17 0 27.5 13t10.5 35q0 1 -0.5 5t-0.5 6h38q1 -6 1 -17q0 -40 -20.5 -62t-53.5 -22q-25 0 -48.5 17.5t-44 34.5t-37.5 17t-27.5 -12.5t-10.5 -33.5q0 -8 1 -12h-37zM338 646l-153 -410h308l-153 410h-2z M35 0l269 700h71l268 -700h-62l-71 189h-343l-70 -189h-62z" unicode="Ã"/>
<glyph glyph-name="Adieresis" d="M216 777v65h56v-65h-56zM406 777v65h56v-65h-56zM338 646l-153 -410h308l-153 410h-2zM35 0l269 700h71l268 -700h-62l-71 189h-343l-70 -189h-62z" unicode="Ä"/>
<glyph glyph-name="Aring" d="M339 700q28 0 48 20t20 49t-19.5 48.5t-48.5 19.5t-48.5 -19.5t-19.5 -48.5t20 -49t48 -20zM338 646l-153 -410h308l-153 410h-2zM35 0l262 682q-25 12 -40.5 35t-15.5 52q0 40 28.5 68t69.5 28t69.5 -28t28.5 -68q0 -61 -55 -87l261 -682h-62l-71 189h-343l-70 -189h-62 z" unicode="Å"/>
<glyph glyph-name="AE" horiz-adv-x="1015" unicode="Æ" d="M388 648l-184 -411h309l-118 411h-7zM33 0l322 700h583v-52h-487l79 -266h368v-50h-353l82 -280h318v-52h-364l-54 189h-345l-84 -189h-65z"/>
<glyph glyph-name="Ccedilla" horiz-adv-x="712" unicode="Ç" d="M237 -191q101 82 122 182q-136 16 -217.5 115.5t-81.5 252.5q0 157 96.5 255t251.5 98q130 0 223 -70l-31 -43q-83 63 -191 63q-131 0 -211.5 -83.5t-80.5 -219.5q0 -145 80 -233t212 -88q122 0 202 75l36 -38q-93 -87 -240 -87q-1 0 -4 0.5t-5 0.5q-20 -119 -115 -203z "/>
<glyph glyph-name="Egrave" horiz-adv-x="634" unicode="È" d="M90 0v700h467v-51h-411v-268h371v-48h-371v-282h417v-51h-473zM313 755l-111 91l45 34l111 -125h-45z"/>
<glyph glyph-name="Eacute" horiz-adv-x="634" unicode="É" d="M90 0v700h467v-51h-411v-268h371v-48h-371v-282h417v-51h-473zM295 755l111 125l45 -34l-112 -91h-44z"/>
<glyph glyph-name="Ecircumflex" horiz-adv-x="634" unicode="Ê" d="M168 755l128 108h60l128 -108h-41l-116 73h-1l-117 -73h-41zM90 0v700h467v-51h-411v-268h371v-48h-371v-282h417v-51h-473z"/>
<glyph glyph-name="Edieresis" horiz-adv-x="634" unicode="Ë" d="M90 0v700h467v-51h-411v-268h371v-48h-371v-282h417v-51h-473zM204 777v65h56v-65h-56zM394 777v65h56v-65h-56z"/>
<glyph glyph-name="Igrave" horiz-adv-x="235" unicode="Ì" d="M104 755l-111 91l45 34l111 -125h-45zM90 0v700h56v-700h-56z"/>
<glyph glyph-name="Iacute" horiz-adv-x="235" unicode="Í" d="M87 755l111 125l45 -34l-112 -91h-44zM90 0v700h56v-700h-56z"/>
<glyph glyph-name="Icircumflex" horiz-adv-x="235" unicode="Î" d="M-40 755l128 108h60l128 -108h-41l-116 73h-1l-117 -73h-41zM90 0v700h56v-700h-56z"/>
<glyph glyph-name="Idieresis" horiz-adv-x="235" unicode="Ï" d="M-5 777v65h56v-65h-56zM185 777v65h56v-65h-56zM90 0v700h56v-700h-56z"/>
<glyph glyph-name="Eth" horiz-adv-x="742" unicode="Ð" d="M180 49h137q153 0 231 81t78 227q0 138 -80 216t-229 78h-137v-279h229v-41h-229v-282zM124 0v331h-109v41h109v328h190q179 0 274 -90.5t95 -252.5q0 -171 -93 -264t-276 -93h-190z"/>
<glyph glyph-name="Ntilde" horiz-adv-x="718" unicode="Ñ" d="M90 0v700h62l421 -619v619h55v-700h-63l-420 618v-618h-55zM221 764q-1 6 -1 19q0 39 20.5 60.5t52.5 21.5t71.5 -35t58.5 -35q17 0 27.5 13t10.5 35q0 1 -0.5 5t-0.5 6h38q1 -6 1 -17q0 -40 -20.5 -62t-53.5 -22q-25 0 -48.5 17.5t-44 34.5t-37.5 17t-27.5 -12.5 t-10.5 -33.5q0 -8 1 -12h-37z"/>
<glyph glyph-name="Ograve" horiz-adv-x="808" unicode="Ò" d="M118 355q0 -145 81.5 -231t204.5 -86t204.5 86t81.5 231q0 137 -82.5 222t-203.5 85t-203.5 -85t-82.5 -222zM60 355q0 159 99 258t245 99t245 -99t99 -258q0 -167 -97.5 -267t-246.5 -100t-246.5 100t-97.5 267zM391 755l-111 91l45 34l111 -125h-45z"/>
<glyph glyph-name="Oacute" horiz-adv-x="808" unicode="Ó" d="M118 355q0 -145 81.5 -231t204.5 -86t204.5 86t81.5 231q0 137 -82.5 222t-203.5 85t-203.5 -85t-82.5 -222zM60 355q0 159 99 258t245 99t245 -99t99 -258q0 -167 -97.5 -267t-246.5 -100t-246.5 100t-97.5 267zM373 755l111 125l45 -34l-112 -91h-44z"/>
<glyph glyph-name="Ocircumflex" horiz-adv-x="808" unicode="Ô" d="M246 755l128 108h60l128 -108h-41l-116 73h-1l-117 -73h-41zM118 355q0 -145 81.5 -231t204.5 -86t204.5 86t81.5 231q0 137 -82.5 222t-203.5 85t-203.5 -85t-82.5 -222zM60 355q0 159 99 258t245 99t245 -99t99 -258q0 -167 -97.5 -267t-246.5 -100t-246.5 100 t-97.5 267z"/>
<glyph glyph-name="Otilde" horiz-adv-x="808" unicode="Õ" d="M118 355q0 -145 81.5 -231t204.5 -86t204.5 86t81.5 231q0 137 -82.5 222t-203.5 85t-203.5 -85t-82.5 -222zM60 355q0 159 99 258t245 99t245 -99t99 -258q0 -167 -97.5 -267t-246.5 -100t-246.5 100t-97.5 267zM266 764q-1 6 -1 19q0 39 20.5 60.5t52.5 21.5t71.5 -35 t58.5 -35q17 0 27.5 13t10.5 35q0 1 -0.5 5t-0.5 6h38q1 -6 1 -17q0 -40 -20.5 -62t-53.5 -22q-32 0 -71 34.5t-59 34.5q-17 0 -27.5 -12.5t-10.5 -33.5q0 -8 1 -12h-37z"/>
<glyph glyph-name="Odieresis" horiz-adv-x="808" unicode="Ö" d="M118 355q0 -145 81.5 -231t204.5 -86t204.5 86t81.5 231q0 137 -82.5 222t-203.5 85t-203.5 -85t-82.5 -222zM60 355q0 159 99 258t245 99t245 -99t99 -258q0 -167 -97.5 -267t-246.5 -100t-246.5 100t-97.5 267zM281 777v65h56v-65h-56zM471 777v65h56v-65h-56z"/>
<glyph glyph-name="multiply" horiz-adv-x="578" unicode="×" d="M71 61l183 195l-183 195l36 35l181 -194l183 194l36 -35l-183 -195l183 -195l-36 -34l-183 193l-181 -193z"/>
<glyph glyph-name="Oslash" horiz-adv-x="808" unicode="Ø" d="M118 355q0 -150 88 -238l367 490q-72 55 -169 55q-121 0 -203.5 -85t-82.5 -222zM690 355q0 140 -88 228l-368 -491q73 -54 170 -54q123 0 204.5 86t81.5 231zM60 355q0 159 99 258t245 99q113 0 201 -62l65 86l32 -25l-66 -86q112 -101 112 -270q0 -167 -97.5 -267 t-246.5 -100q-116 0 -201 61l-64 -85l-32 24l65 85q-112 102 -112 282z"/>
<glyph glyph-name="Ugrave" horiz-adv-x="712" unicode="Ù" d="M87 256v444h57v-444q0 -103 60 -160.5t152 -57.5t152.5 57.5t60.5 160.5v444h57v-444q0 -129 -75.5 -198.5t-194.5 -69.5q-118 0 -193.5 69.5t-75.5 198.5zM342 755l-111 91l45 34l111 -125h-45z"/>
<glyph glyph-name="Uacute" horiz-adv-x="712" unicode="Ú" d="M87 256v444h57v-444q0 -103 60 -160.5t152 -57.5t152.5 57.5t60.5 160.5v444h57v-444q0 -129 -75.5 -198.5t-194.5 -69.5q-118 0 -193.5 69.5t-75.5 198.5zM325 755l111 125l45 -34l-112 -91h-44z"/>
<glyph glyph-name="Ucircumflex" horiz-adv-x="712" unicode="Û" d="M198 755l128 108h60l128 -108h-41l-116 73h-1l-117 -73h-41zM87 256v444h57v-444q0 -103 60 -160.5t152 -57.5t152.5 57.5t60.5 160.5v444h57v-444q0 -129 -75.5 -198.5t-194.5 -69.5q-118 0 -193.5 69.5t-75.5 198.5z"/>
<glyph glyph-name="Udieresis" horiz-adv-x="712" unicode="Ü" d="M87 256v444h57v-444q0 -103 60 -160.5t152 -57.5t152.5 57.5t60.5 160.5v444h57v-444q0 -129 -75.5 -198.5t-194.5 -69.5q-118 0 -193.5 69.5t-75.5 198.5zM233 777v65h56v-65h-56zM423 777v65h56v-65h-56z"/>
<glyph glyph-name="Yacute" horiz-adv-x="651" unicode="Ý" d="M294 755l111 125l45 -34l-112 -91h-44zM297 0v287l-263 413h67l224 -360h2l223 360h67l-263 -413v-287h-57z"/>
<glyph glyph-name="Thorn" horiz-adv-x="653" unicode="Þ" d="M146 191h208q93 0 139 47t46 116t-46 114.5t-138 45.5h-209v-323zM90 0v700h56v-137h209q123 0 182 -59.5t59 -149.5t-59.5 -150.5t-182.5 -60.5h-208v-143h-56z"/>
<glyph glyph-name="germandbls" horiz-adv-x="626" unicode="ß" d="M87 0v552q0 98 60 153.5t156 55.5q97 0 159 -53t62 -144q0 -62 -37.5 -109t-106.5 -63v-1q91 -11 142 -64.5t51 -129.5q0 -95 -65 -151.5t-164 -56.5q-60 0 -105 14l11 48q39 -13 89 -13q77 0 127.5 43.5t50.5 117.5t-55 119.5t-150 45.5h-43v48h33q82 0 124 44t42 106 q0 73 -45.5 113.5t-119.5 40.5q-73 0 -117 -43t-44 -121v-552h-55z"/>
<glyph glyph-name="agrave" horiz-adv-x="514" unicode="à" d="M259 566l-141 137l41 32l139 -169h-39zM107 116q0 -38 27.5 -61t73.5 -23q51 0 93.5 22t65.5 56v136q-260 -11 -260 -130zM52 113q0 158 315 171v91q0 45 -28.5 73t-85.5 28q-71 0 -161 -46l-23 45q94 48 185 48q85 0 127 -40.5t42 -108.5v-274q0 -59 54 -59v-42 q-86 0 -104 69q-68 -80 -175 -80q-66 0 -106 34t-40 91z"/>
<glyph glyph-name="aacute" horiz-adv-x="514" unicode="á" d="M230 566l139 169l41 -32l-141 -137h-39zM107 116q0 -38 27.5 -61t73.5 -23q51 0 93.5 22t65.5 56v136q-260 -11 -260 -130zM52 113q0 158 315 171v91q0 45 -28.5 73t-85.5 28q-71 0 -161 -46l-23 45q94 48 185 48q85 0 127 -40.5t42 -108.5v-274q0 -59 54 -59v-42 q-86 0 -104 69q-68 -80 -175 -80q-66 0 -106 34t-40 91z"/>
<glyph glyph-name="acircumflex" horiz-adv-x="514" unicode="â" d="M107 566l126 157h62l126 -157h-42l-114 120h-2l-115 -120h-41zM107 116q0 -38 27.5 -61t73.5 -23q51 0 93.5 22t65.5 56v136q-260 -11 -260 -130zM52 113q0 158 315 171v91q0 45 -28.5 73t-85.5 28q-71 0 -161 -46l-23 45q94 48 185 48q85 0 127 -40.5t42 -108.5v-274 q0 -59 54 -59v-42q-86 0 -104 69q-68 -80 -175 -80q-66 0 -106 34t-40 91z"/>
<glyph glyph-name="atilde" horiz-adv-x="514" unicode="ã" d="M126 599q-1 6 -1 17q0 39 20.5 61.5t53.5 22.5q31 0 70.5 -34.5t58.5 -34.5q17 0 27.5 12.5t10.5 35.5q0 2 -0.5 5.5t-0.5 5.5h37q1 -7 1 -19q0 -39 -20.5 -61t-52.5 -22q-31 0 -70.5 34.5t-58.5 34.5q-38 0 -38 -45q0 -8 1 -13h-38zM107 116q0 -38 27.5 -61t73.5 -23 q51 0 93.5 22t65.5 56v136q-260 -11 -260 -130zM52 113q0 158 315 171v91q0 45 -28.5 73t-85.5 28q-71 0 -161 -46l-23 45q94 48 185 48q85 0 127 -40.5t42 -108.5v-274q0 -59 54 -59v-42q-86 0 -104 69q-68 -80 -175 -80q-66 0 -106 34t-40 91z"/>
<glyph glyph-name="adieresis" horiz-adv-x="514" unicode="ä" d="M146 612v65h56v-65h-56zM327 612v65h56v-65h-56zM107 116q0 -38 27.5 -61t73.5 -23q51 0 93.5 22t65.5 56v136q-260 -11 -260 -130zM52 113q0 158 315 171v91q0 45 -28.5 73t-85.5 28q-71 0 -161 -46l-23 45q94 48 185 48q85 0 127 -40.5t42 -108.5v-274q0 -59 54 -59 v-42q-86 0 -104 69q-68 -80 -175 -80q-66 0 -106 34t-40 91z"/>
<glyph glyph-name="aring" horiz-adv-x="514" unicode="å" d="M264 590q28 0 48 20t20 49t-19.5 49t-48.5 20t-49 -20t-20 -49t20.5 -49t48.5 -20zM264 563q-41 0 -69.5 28t-28.5 68t28.5 68t69.5 28q40 0 68.5 -28t28.5 -68t-28.5 -68t-68.5 -28zM107 116q0 -38 27.5 -61t73.5 -23q51 0 93.5 22t65.5 56v136q-260 -11 -260 -130z M52 113q0 158 315 171v91q0 45 -28.5 73t-85.5 28q-71 0 -161 -46l-23 45q94 48 185 48q85 0 127 -40.5t42 -108.5v-274q0 -59 54 -59v-42q-86 0 -104 69q-68 -80 -175 -80q-66 0 -106 34t-40 91z"/>
<glyph glyph-name="ae" horiz-adv-x="868" unicode="æ" d="M107 116q0 -38 28 -61t73 -23q57 0 106 29t70 79q-16 50 -16 105q-261 -9 -261 -129zM426 304h328v7q0 75 -36 121.5t-111 46.5q-72 0 -121.5 -47t-59.5 -128zM404 99q-29 -47 -83 -79t-122 -32q-67 0 -107 34t-40 91q0 157 316 170v92q0 45 -28.5 73t-85.5 28 q-74 0 -162 -46l-23 45q96 48 185 48q138 0 155 -116q30 55 81 85.5t116 30.5q101 0 151.5 -61t50.5 -162q0 -7 -3 -37h-382q0 -114 48.5 -171t137.5 -57q82 0 153 49l27 -39q-79 -57 -182 -57q-144 0 -203 111z"/>
<glyph glyph-name="ccedilla" horiz-adv-x="508" unicode="ç" d="M132 -191q101 82 122 182q-90 12 -143.5 84t-53.5 187q0 119 65.5 190t169.5 71q91 0 158 -50l-30 -40q-57 42 -127 42q-80 0 -130 -58t-50 -155q0 -105 49 -166t131 -61q75 0 136 51l33 -36q-73 -62 -169 -62q-20 -116 -115 -202z"/>
<glyph glyph-name="egrave" horiz-adv-x="559" unicode="è" d="M288 566l-141 137l41 32l139 -169h-39zM297 479q-72 0 -121.5 -47t-59.5 -128h328v7q0 75 -36 121.5t-111 46.5zM58 262q0 118 67 189.5t171 71.5q101 0 151.5 -61t50.5 -162q0 -17 -2 -37h-383v-2q0 -108 47 -167t139 -59q83 0 154 49l27 -39q-81 -57 -183 -57 q-116 0 -177.5 72t-61.5 202z"/>
<glyph glyph-name="eacute" horiz-adv-x="559" unicode="é" d="M259 566l139 169l41 -32l-141 -137h-39zM297 479q-72 0 -121.5 -47t-59.5 -128h328v7q0 75 -36 121.5t-111 46.5zM58 262q0 118 67 189.5t171 71.5q101 0 151.5 -61t50.5 -162q0 -17 -2 -37h-383v-2q0 -108 47 -167t139 -59q83 0 154 49l27 -39q-81 -57 -183 -57 q-116 0 -177.5 72t-61.5 202z"/>
<glyph glyph-name="ecircumflex" horiz-adv-x="559" unicode="ê" d="M137 566l126 157h62l126 -157h-42l-114 120h-2l-115 -120h-41zM297 479q-72 0 -121.5 -47t-59.5 -128h328v7q0 75 -36 121.5t-111 46.5zM58 262q0 118 67 189.5t171 71.5q101 0 151.5 -61t50.5 -162q0 -17 -2 -37h-383v-2q0 -108 47 -167t139 -59q83 0 154 49l27 -39 q-81 -57 -183 -57q-116 0 -177.5 72t-61.5 202z"/>
<glyph glyph-name="edieresis" horiz-adv-x="559" unicode="ë" d="M357 612v65h56v-65h-56zM176 612v65h56v-65h-56zM297 479q-72 0 -121.5 -47t-59.5 -128h328v7q0 75 -36 121.5t-111 46.5zM58 262q0 118 67 189.5t171 71.5q101 0 151.5 -61t50.5 -162q0 -17 -2 -37h-383v-2q0 -108 47 -167t139 -59q83 0 154 49l27 -39q-81 -57 -183 -57 q-116 0 -177.5 72t-61.5 202z"/>
<glyph glyph-name="igrave" horiz-adv-x="231" unicode="ì" d="M110 566l-141 137l41 32l139 -169h-39zM88 0v509h55v-509h-55z"/>
<glyph glyph-name="iacute" horiz-adv-x="231" unicode="í" d="M88 0v509h55v-509h-55zM82 566l139 169l41 -32l-141 -137h-39z"/>
<glyph glyph-name="icircumflex" horiz-adv-x="231" unicode="î" d="M88 0v509h55v-509h-55zM-41 566l126 157h62l126 -157h-42l-114 120h-2l-115 -120h-41z"/>
<glyph glyph-name="idieresis" horiz-adv-x="231" unicode="ï" d="M88 0v509h55v-509h-55zM-2 612v65h56v-65h-56zM179 612v65h56v-65h-56z"/>
<glyph glyph-name="eth" horiz-adv-x="578" unicode="ð" d="M465 249q0 33 -9 83q-73 79 -177 79q-76 0 -120.5 -49.5t-44.5 -132.5q0 -89 47.5 -142t127.5 -53t128 57.5t48 157.5zM197 554l-18 35q60 29 98 51q-52 54 -121 115h69q48 -42 96 -92l96 51l18 -35q-50 -25 -87 -45q172 -190 172 -383q0 -123 -63 -193t-168 -70 q-106 0 -168.5 66t-62.5 175q0 101 58.5 163.5t154.5 62.5q100 0 173 -68q-41 116 -140 224z"/>
<glyph glyph-name="ntilde" horiz-adv-x="566" unicode="ñ" d="M146 599q-1 6 -1 17q0 39 20.5 61.5t53.5 22.5q31 0 70.5 -34.5t58.5 -34.5q17 0 27.5 12.5t10.5 35.5q0 2 -0.5 5.5t-0.5 5.5h37q1 -7 1 -19q0 -39 -20.5 -61t-52.5 -22q-31 0 -70.5 34.5t-58.5 34.5q-38 0 -38 -45q0 -8 1 -13h-38zM84 0v511h50l5 -76q83 88 187 88 q159 0 159 -171v-352h-56v353q0 124 -113 124q-102 0 -177 -93v-384h-55z"/>
<glyph glyph-name="ograve" horiz-adv-x="594" unicode="ò" d="M114 262q0 -104 50 -166.5t134 -62.5q83 0 132.5 62.5t49.5 166.5q0 97 -51 156t-131 59q-81 0 -132.5 -59t-51.5 -156zM58 262q0 117 67.5 189t172.5 72t172 -72t67 -189q0 -125 -66 -199.5t-173 -74.5q-109 0 -174.5 74.5t-65.5 199.5zM291 566l-141 137l41 32 l139 -169h-39z"/>
<glyph glyph-name="oacute" horiz-adv-x="594" unicode="ó" d="M114 262q0 -104 50 -166.5t134 -62.5q83 0 132.5 62.5t49.5 166.5q0 97 -51 156t-131 59q-81 0 -132.5 -59t-51.5 -156zM58 262q0 117 67.5 189t172.5 72t172 -72t67 -189q0 -125 -66 -199.5t-173 -74.5q-109 0 -174.5 74.5t-65.5 199.5zM263 566l139 169l41 -32 l-141 -137h-39z"/>
<glyph glyph-name="ocircumflex" horiz-adv-x="594" unicode="ô" d="M114 262q0 -104 50 -166.5t134 -62.5q83 0 132.5 62.5t49.5 166.5q0 97 -51 156t-131 59q-81 0 -132.5 -59t-51.5 -156zM58 262q0 117 67.5 189t172.5 72t172 -72t67 -189q0 -125 -66 -199.5t-173 -74.5q-109 0 -174.5 74.5t-65.5 199.5zM140 566l126 157h62l126 -157 h-42l-114 120h-2l-115 -120h-41z"/>
<glyph glyph-name="otilde" horiz-adv-x="594" unicode="õ" d="M159 599q-1 6 -1 17q0 39 20.5 61.5t53.5 22.5q31 0 70.5 -34.5t58.5 -34.5q17 0 27.5 12.5t10.5 35.5q0 2 -0.5 5.5t-0.5 5.5h37q1 -7 1 -19q0 -39 -20.5 -61t-52.5 -22q-31 0 -70.5 34.5t-58.5 34.5q-38 0 -38 -45q0 -8 1 -13h-38zM114 262q0 -104 50 -166.5t134 -62.5 q83 0 132.5 62.5t49.5 166.5q0 97 -51 156t-131 59q-81 0 -132.5 -59t-51.5 -156zM58 262q0 117 67.5 189t172.5 72t172 -72t67 -189q0 -125 -66 -199.5t-173 -74.5q-109 0 -174.5 74.5t-65.5 199.5z"/>
<glyph glyph-name="odieresis" horiz-adv-x="594" unicode="ö" d="M114 262q0 -104 50 -166.5t134 -62.5q83 0 132.5 62.5t49.5 166.5q0 97 -51 156t-131 59q-81 0 -132.5 -59t-51.5 -156zM58 262q0 117 67.5 189t172.5 72t172 -72t67 -189q0 -125 -66 -199.5t-173 -74.5q-109 0 -174.5 74.5t-65.5 199.5zM179 612v65h56v-65h-56zM360 612 v65h56v-65h-56z"/>
<glyph glyph-name="divide" horiz-adv-x="613" unicode="÷" d="M51 231v50h511v-50h-511zM279 25v90h54v-90h-54zM279 396v91h54v-91h-54z"/>
<glyph glyph-name="oslash" horiz-adv-x="594" unicode="ø" d="M114 262q0 -96 44 -159l251 334q-46 40 -111 40q-81 0 -132.5 -59t-51.5 -156zM480 262q0 90 -46 149l-252 -335q48 -43 116 -43q83 0 132.5 62.5t49.5 166.5zM58 262q0 117 67.5 189t172.5 72q80 0 141 -45l63 85l32 -25l-66 -85q69 -74 69 -191q0 -125 -66 -199.5 t-173 -74.5q-85 0 -145 46l-66 -87l-32 24l69 91q-66 74 -66 200z"/>
<glyph glyph-name="ugrave" horiz-adv-x="567" unicode="ù" d="M275 566l-141 137l41 32l139 -169h-39zM82 159v352h55v-353q0 -125 113 -125q101 0 178 93v385h55v-511h-48l-7 75q-83 -87 -187 -87q-159 0 -159 171z"/>
<glyph glyph-name="uacute" horiz-adv-x="567" unicode="ú" d="M82 159v352h55v-353q0 -125 113 -125q101 0 178 93v385h55v-511h-48l-7 75q-83 -87 -187 -87q-159 0 -159 171zM250 566l139 169l41 -32l-141 -137h-39z"/>
<glyph glyph-name="ucircumflex" horiz-adv-x="567" unicode="û" d="M82 159v352h55v-353q0 -125 113 -125q101 0 178 93v385h55v-511h-48l-7 75q-83 -87 -187 -87q-159 0 -159 171zM126 566l126 157h62l126 -157h-42l-114 120h-2l-115 -120h-41z"/>
<glyph glyph-name="udieresis" horiz-adv-x="567" unicode="ü" d="M82 159v352h55v-353q0 -125 113 -125q101 0 178 93v385h55v-511h-48l-7 75q-83 -87 -187 -87q-159 0 -159 171zM165 612v65h56v-65h-56zM346 612v65h56v-65h-56z"/>
<glyph glyph-name="yacute" horiz-adv-x="487" unicode="ý" d="M211 566l139 169l41 -32l-141 -137h-39zM36 -150q32 -13 56 -13q32 0 53 15t35 53l38 99l-192 507h59l160 -435h2l156 435h58l-227 -613q-22 -60 -56.5 -84t-84.5 -24q-38 0 -73 14z"/>
<glyph glyph-name="thorn" horiz-adv-x="580" unicode="þ" d="M143 120q72 -87 160 -87q78 0 121 62t43 168q0 99 -44.5 156.5t-120.5 57.5q-83 0 -159 -86v-271zM143 72v-272h-55v955h55v-316q79 84 169 84q95 0 152.5 -70t57.5 -190q0 -128 -55.5 -201.5t-153.5 -73.5q-94 0 -170 84z"/>
<glyph glyph-name="OE" horiz-adv-x="1232" unicode="Œ" d="M117 357q0 -142 81 -230.5t205 -88.5q123 0 204 88.5t81 230.5q0 132 -83 218.5t-202 86.5q-121 0 -203.5 -86.5t-82.5 -218.5zM60 357q0 154 98.5 254.5t242.5 100.5q96 0 173 -51.5t114 -139.5v179h467v-51h-411v-268h371v-49h-371v-281h418v-51h-474v180 q-36 -90 -112.5 -141t-174.5 -51q-147 0 -244 102.5t-97 266.5z"/>
<glyph glyph-name="oe" horiz-adv-x="982" unicode="œ" d="M539 304h328v7q0 75 -36 121.5t-111 46.5q-72 0 -121.5 -47.5t-59.5 -127.5zM114 262q0 -104 50 -166.5t134 -62.5q83 0 133 62.5t50 166.5q0 97 -51 156t-132 59t-132.5 -59t-51.5 -156zM58 262q0 117 67.5 189t172.5 72q77 0 132.5 -42t77.5 -116q22 74 78 116t133 42 q101 0 152 -61t51 -162q0 -7 -3 -37h-382q0 -111 47 -169.5t139 -58.5q82 0 153 49l27 -39q-79 -57 -182 -57q-170 0 -214 160q-22 -75 -76.5 -117.5t-132.5 -42.5q-109 0 -174.5 74.5t-65.5 199.5z"/>
<glyph glyph-name="Scaron" horiz-adv-x="607" unicode="Š" d="M274 755l-128 108h41l117 -72h1l116 72h41l-128 -108h-60zM57 58l29 45q94 -64 220 -64q91 0 138 38t47 100q0 44 -23.5 73t-60.5 44t-82 26t-90.5 24t-82.5 32.5t-60.5 57.5t-23.5 93q0 80 62.5 132.5t169.5 52.5q120 0 222 -50l-23 -48q-94 47 -197 47 q-81 0 -128 -37.5t-47 -95.5q0 -44 23.5 -73.5t60.5 -44t82.5 -25.5t90.5 -24t82 -32t60.5 -57.5t23.5 -94.5q0 -84 -62.5 -136.5t-181.5 -52.5q-73 0 -139 20t-110 50z"/>
<glyph glyph-name="scaron" horiz-adv-x="455" unicode="š" d="M42 37l26 42q68 -45 160 -45q63 0 96 25t33 69q0 35 -23 57.5t-57 31.5t-74 20.5t-74 24t-57 43t-23 76.5q0 64 48.5 103t127.5 39q86 0 165 -38l-22 -43q-70 35 -143 35q-55 0 -88 -26t-33 -68q0 -35 23 -57t57 -30.5t74 -20t74 -24t57 -43.5t23 -78q0 -66 -48 -104 t-136 -38q-106 0 -186 49zM198 566l-126 157h41l115 -120h2l114 120h42l-126 -157h-62z"/>
<glyph glyph-name="Ydieresis" horiz-adv-x="651" unicode="Ÿ" d="M203 777v65h56v-65h-56zM393 777v65h56v-65h-56zM297 0v287l-263 413h67l224 -360h2l223 360h67l-263 -413v-287h-57z"/>
<glyph glyph-name="circumflex" horiz-adv-x="653" unicode="ˆ" d="M171 566l126 157h62l126 -157h-42l-114 120h-2l-115 -120h-41z"/>
<glyph glyph-name="tilde" horiz-adv-x="651" unicode="˜" d="M188 599q-1 6 -1 17q0 39 20.5 61.5t53.5 22.5q31 0 70.5 -34.5t58.5 -34.5q17 0 27.5 12.5t10.5 35.5q0 2 -0.5 5.5t-0.5 5.5h37q1 -7 1 -19q0 -39 -20.5 -61t-52.5 -22q-31 0 -70.5 34.5t-58.5 34.5q-38 0 -38 -45q0 -8 1 -13h-38z"/>
<glyph glyph-name="pi" horiz-adv-x="733" unicode="π" d="M670 489h-161v-319q0 -69 32 -97.5t95 -28.5v-46q-93 0 -137.5 38.5t-44.5 133.5v319h-184v-489h-56v489h-151v47h607v-47z"/>
<glyph glyph-name="enspace" horiz-adv-x="500" unicode=" "/>
<glyph glyph-name="emspace" horiz-adv-x="1000" unicode=" "/>
<glyph glyph-name="thinspace" horiz-adv-x="100" unicode=" "/>
<glyph glyph-name="endash" horiz-adv-x="573" unicode="–" d="M48 234v50h477v-50h-477z"/>
<glyph glyph-name="emdash" horiz-adv-x="916" unicode="—" d="M48 234v50h819v-50h-819z"/>
<glyph glyph-name="quoteleft" horiz-adv-x="207" unicode="‘" d="M134 567v-104h-61v93q0 58 20 92t63 54l16 -27q-58 -31 -58 -108h20z"/>
<glyph glyph-name="quotesinglbase" horiz-adv-x="207" unicode="‚" d="M73 0v104h61v-93q0 -58 -20 -92t-63 -54l-16 27q58 31 58 108h-20z"/>
<glyph glyph-name="quotedblleft" horiz-adv-x="397" unicode="“" d="M324 567v-104h-61v93q0 58 20 92t63 54l16 -27q-58 -31 -58 -108h20zM134 567v-104h-61v93q0 58 20 92t63 54l16 -27q-58 -31 -58 -108h20z"/>
<glyph glyph-name="quotedblright" horiz-adv-x="397" unicode="”" d="M73 596v104h61v-93q0 -58 -20 -92t-63 -54l-16 27q58 31 58 108h-20zM263 596v104h61v-93q0 -58 -20 -92t-63 -54l-16 27q58 31 58 108h-20z"/>
<glyph glyph-name="dagger" horiz-adv-x="450" unicode="†" d="M198 272v179l8 114l-88 -5h-57v48h57l88 -6l-8 118v35h53v-35l-9 -118l90 6h57v-48h-57l-90 6l9 -115v-179h-53z"/>
<glyph glyph-name="daggerdbl" horiz-adv-x="443" unicode="‡" d="M198 84v167l8 104l-88 -7h-57v49h57l88 -5l-7 92l7 97l-88 -5h-57v49h57l88 -7l-8 104v33h53v-33l-9 -103l90 6h51v-49h-51l-90 6l7 -98l-7 -92l90 5h51v-49h-51l-90 7l9 -104v-167h-53z"/>
<glyph glyph-name="ellipsis" horiz-adv-x="658" unicode="…" d="M525 0v104h61v-104h-61zM299 0v104h61v-104h-61zM73 0v104h61v-104h-61z"/>
<glyph glyph-name="perthousand" horiz-adv-x="1047" unicode="‰" d="M436 123q0 -41 28 -69t68 -28q41 0 68.5 28t27.5 69t-27.5 69t-68.5 28t-68.5 -28t-27.5 -69zM395 123q0 57 39.5 96t97.5 39q57 0 96.5 -39t39.5 -96t-39.5 -95.5t-96.5 -38.5q-58 0 -97.5 38.5t-39.5 95.5zM96 413q0 -41 28 -69.5t69 -28.5q40 0 68 28.5t28 69.5 t-28 69t-68 28q-41 0 -69 -28t-28 -69zM56 413q0 56 39.5 95t96.5 39q58 0 97.5 -39t39.5 -95q0 -58 -39.5 -96.5t-97.5 -38.5q-57 0 -96.5 39t-39.5 96zM534 536h48l-398 -536h-47zM759 123q0 -41 28 -69t69 -28q40 0 67.5 28t27.5 69t-27.5 69t-67.5 28q-41 0 -69 -28 t-28 -69zM718 123q0 57 40 96t97 39t96.5 -39t39.5 -96t-39.5 -95.5t-96.5 -38.5q-58 0 -97.5 38.5t-39.5 95.5z"/>
<glyph glyph-name="guilsinglleft" horiz-adv-x="353" unicode="‹" d="M112 256l180 -226l-39 -30l-201 256l201 255l39 -31z"/>
<glyph glyph-name="guilsinglright" horiz-adv-x="353" unicode="›" d="M61 30l180 226l-180 224l39 31l201 -255l-201 -256z"/>
<glyph glyph-name="fraction" horiz-adv-x="628" unicode="⁄" d="M-2 0l582 700h49l-581 -700h-50z"/>
<glyph glyph-name="Euro" horiz-adv-x="623" unicode="€" d="M32 171v39h90q-5 32 -5 62q0 28 4 51h-89v39h98q26 85 97 135.5t164 50.5q108 0 185 -65l-32 -36q-65 54 -151 54q-73 0 -128.5 -37.5t-79.5 -103.5h212v-37h-221q-5 -27 -5 -51q0 -34 6 -62h220v-37h-209q25 -64 79.5 -100.5t126.5 -36.5q90 0 154 57l38 -32 q-78 -72 -194 -72q-93 0 -162.5 48.5t-97.5 133.5h-100z"/>
<glyph glyph-name="trademark" horiz-adv-x="875" unicode="™" d="M184 330v330h-147v40h343v-40h-151v-330h-45zM447 330v370h51l131 -176l131 176h51v-370h-44v307l-137 -182l-138 183v-308h-45z"/>
<glyph glyph-name="uni2190" horiz-adv-x="900" unicode="←" d="M99 332l302 262l32 -36l-241 -205l268 4h341v-50h-341l-268 3l242 -204l-33 -37z"/>
<glyph glyph-name="uni2191" horiz-adv-x="900" unicode="↑" d="M224 339l-37 32l263 302l263 -302l-37 -32l-205 240l4 -267v-342h-50v342l4 267z"/>
<glyph glyph-name="uni2192" horiz-adv-x="900" unicode="→" d="M499 603l302 -262l-302 -263l-33 37l242 204l-268 -3h-341v50h341l268 -4l-241 205z"/>
<glyph glyph-name="uni2193" horiz-adv-x="900" unicode="↓" d="M187 289l37 32l205 -240l-4 267v342h50v-342l-4 -267l205 240l37 -32l-263 -302z"/>
<glyph glyph-name="partialdiff" horiz-adv-x="590" unicode="∂" d="M471 249q0 50 -1 75q-75 85 -184 85q-76 0 -121.5 -48.5t-45.5 -131.5q0 -88 48.5 -140.5t128.5 -52.5t127.5 56.5t47.5 156.5zM526 251q0 -124 -62.5 -193.5t-167.5 -69.5q-107 0 -169.5 66t-62.5 175q0 102 58.5 164t154.5 62q115 0 190 -81q-4 62 -14.5 111t-31 91.5 t-56.5 66t-86 23.5q-83 0 -169 -37l-20 43q96 40 189 40q60 0 105 -25.5t72 -67t43 -103.5t21.5 -124.5t5.5 -140.5z"/>
<glyph glyph-name="product" horiz-adv-x="834" unicode="∏" d="M771 652h-151v-652h-55v652h-296v-652h-55v652h-151v48h708v-48z"/>
<glyph glyph-name="summation" horiz-adv-x="668" unicode="∑" d="M605 0h-542v38l318 318l-302 307v37h514v-48h-434l292 -296l-310 -308h464v-48z"/>
<glyph glyph-name="minus" horiz-adv-x="613" unicode="−" d="M51 231v50h511v-50h-511z"/>
<glyph glyph-name="radical" horiz-adv-x="726" unicode="√" d="M18 410l-18 49l194 75l117 -455l355 621h60l-408 -712h-32l-127 479z"/>
<glyph glyph-name="infinity" horiz-adv-x="823" unicode="∞" d="M436 256q29 -62 73.5 -102t92.5 -40q53 0 86 38.5t33 103.5t-33 103.5t-86 38.5q-48 0 -92.5 -40t-73.5 -102zM222 67q-78 0 -124 50.5t-46 138.5q0 87 46 138t124 51q54 0 104 -41t86 -108q35 67 85 108t105 41q78 0 123.5 -51t45.5 -138q0 -88 -45.5 -138.5 t-123.5 -50.5q-55 0 -104.5 41t-85.5 107q-36 -66 -86 -107t-104 -41zM221 114q48 0 92.5 40t73.5 102q-29 62 -73.5 102t-92.5 40q-52 0 -85.5 -39t-33.5 -103t33.5 -103t85.5 -39z"/>
<glyph glyph-name="approxequal" horiz-adv-x="613" unicode="≈" d="M52 66q0 4 -0.5 10t-0.5 9q0 58 32 91.5t86 33.5q46 0 96.5 -28t96 -56t81.5 -28q32 0 52.5 20t20.5 60q0 2 -0.5 7t-0.5 7h46q0 -4 0.5 -10t0.5 -9q0 -59 -32 -92.5t-86 -33.5q-37 0 -77 17.5t-68.5 38.5t-64 38.5t-63.5 17.5q-33 0 -53.5 -19.5t-20.5 -58.5 q0 -3 0.5 -8t0.5 -7h-46zM52 319q0 4 -0.5 10t-0.5 9q0 59 32 92.5t86 33.5q46 0 96.5 -28t96 -56t81.5 -28q32 0 52.5 20t20.5 60q0 2 -0.5 7t-0.5 7h46q0 -4 0.5 -10t0.5 -9q0 -59 -32 -92.5t-86 -33.5q-37 0 -77 17.5t-68.5 38.5t-64 38.5t-63.5 17.5q-34 0 -54 -19.5 t-20 -59.5q0 -2 0.5 -7t0.5 -8h-46z"/>
<glyph glyph-name="notequal" horiz-adv-x="613" unicode="≠" d="M51 351v50h334l77 110h49l-77 -110h128v-50h-162l-131 -190h293v-50h-328l-77 -111h-49l77 111h-134v50h169l132 190h-301z"/>
<glyph glyph-name="lessequal" horiz-adv-x="644" unicode="≤" d="M43 0v44h536l-536 208v57l536 202v-55l-462 -176l462 -181v-55v-44h-536z"/>
<glyph glyph-name="greaterequal" horiz-adv-x="644" unicode="≥" d="M602 44v-44h-536v44h536zM66 44v55l462 181l-462 176v55l536 -202v-57z"/>
<glyph glyph-name="lozenge" horiz-adv-x="631" unicode="◊" d="M65 351l250 364l251 -364l-251 -364zM120 351l196 -289l197 289l-197 289z"/>
</font>
</defs>
</svg>
