<?xml version="1.0" encoding="UTF-8" standalone="no"?>
<!DOCTYPE svg  PUBLIC '-//W3C//DTD SVG 1.1//EN'  'http://www.w3.org/Graphics/SVG/1.1/DTD/svg11.dtd'>
<svg xmlns="http://www.w3.org/2000/svg">
<defs>
<font id="AlrightSans-MediumItalic" horiz-adv-x="802">
<font-face slope="-10" underline-position="-50" font-weight="350" descent="-200" panose-1="0 0 4 0 0 0 0 0 0 0" units-per-em="1000" unicode-range="U+0020-25CA" bbox="-165 -220 1195 900" x-height="529" underline-thickness="50" font-family="Alright Sans Medium Italic" ascent="800" font-style="italic" cap-height="700"/>
<missing-glyph horiz-adv-x="1000"/>
<glyph glyph-name=".notdef" horiz-adv-x="1000"/>
<glyph glyph-name=".null" horiz-adv-x="0"/>
<glyph glyph-name="nonmarkingreturn" horiz-adv-x="333"/>
<glyph glyph-name="space" horiz-adv-x="242" unicode=" "/>
<glyph glyph-name="exclam" horiz-adv-x="275" unicode="!" d="M18 0l20 117h130l-20 -117h-130zM89 211l36 362l23 127h120l-23 -127l-95 -362h-61z"/>
<glyph glyph-name="quotedbl" horiz-adv-x="413" unicode='&quot;' d="M285 482l39 218h123l-88 -232zM78 482l39 218h123l-88 -232z"/>
<glyph glyph-name="numbersign" horiz-adv-x="663" unicode="#" d="M283 344l-45 -132h127l45 132h-127zM69 344l15 86h126l43 126h102l-43 -126h127l43 126h101l-43 -126h113l-15 -86h-127l-45 -132h117l-15 -85h-130l-43 -127h-102l43 127h-126l-43 -127h-102l43 127h-109l15 85h122l45 132h-112z"/>
<glyph glyph-name="dollar" horiz-adv-x="550" unicode="$" d="M369 159q0 21 -19 34.5t-56 25.5l-25 -137q47 5 73.5 26t26.5 51zM183 399q0 -21 20 -34.5t59 -25.5l24 135q-46 -3 -74.5 -24.5t-28.5 -50.5zM6 62l62 75q62 -47 148 -55l27 151q-39 11 -63.5 20.5t-53.5 27t-43.5 44.5t-14.5 63q0 81 59.5 128t169.5 51l15 89h65 l-15 -91q76 -10 151 -51l-56 -79q-58 30 -118 37l-26 -147q37 -11 61.5 -20.5t52 -27.5t41.5 -44.5t14 -62.5q0 -81 -54.5 -128t-168.5 -53l-21 -122h-65l21 123q-108 10 -188 72z"/>
<glyph glyph-name="percent" horiz-adv-x="781" unicode="%" d="M489 124q0 -31 16 -49.5t46 -18.5q36 0 63 28.5t27 65.5q0 31 -16 49t-46 18q-36 0 -63 -28t-27 -65zM410 118q0 70 51.5 118t127.5 48q57 0 94.5 -35.5t37.5 -91.5q0 -71 -51.5 -119t-128.5 -48q-57 0 -94 35.5t-37 92.5zM127 406q0 -31 16 -49.5t46 -18.5q36 0 63 28.5 t27 65.5q0 31 -16 49t-46 18q-36 0 -63 -28t-27 -65zM48 400q0 70 51.5 118t127.5 48q57 0 94.5 -35.5t37.5 -91.5q0 -71 -51.5 -119t-128.5 -48q-57 0 -94 35.5t-37 92.5zM580 556h89l-478 -556h-90z"/>
<glyph glyph-name="ampersand" horiz-adv-x="735" unicode="&amp;" d="M432 148q-106 97 -186 191q-117 -57 -117 -146q0 -107 130 -107q97 0 173 62zM20 179q0 77 48.5 135t128.5 95q-32 59 -32 115q0 79 59.5 133t151.5 54q112 0 191 -88l-80 -66q-54 57 -115 57q-43 0 -69 -26t-26 -65q0 -53 40 -103q70 -88 183 -194q40 64 52 143h108 q-19 -117 -86 -210q56 -48 110 -92l-73 -75q-68 56 -107 91q-111 -95 -259 -95q-106 0 -165.5 54t-59.5 137z"/>
<glyph glyph-name="quotesingle" horiz-adv-x="214" unicode="&apos;" d="M78 482l39 218h123l-88 -232z"/>
<glyph glyph-name="parenleft" horiz-adv-x="393" unicode="(" d="M49 178q0 166 67 318.5t190 258.5h138q-128 -102 -204 -259.5t-76 -330.5q0 -202 115 -365h-120q-48 69 -79 167t-31 211z"/>
<glyph glyph-name="parenright" horiz-adv-x="393" unicode=")" d="M337 377q0 -167 -67.5 -319.5t-190.5 -257.5h-138q129 103 205 260.5t76 329.5q0 202 -115 365h120q110 -163 110 -378z"/>
<glyph glyph-name="asterisk" horiz-adv-x="418" unicode="*" d="M155 410l58 116l-2 1l-126 -17l2 90l126 -19l2 2l-50 115l77 22l24 -123l2 -1l96 78l49 -69l-112 -52v-3l108 -65l-53 -65l-90 89l-2 -1l-36 -125z"/>
<glyph glyph-name="plus" horiz-adv-x="605" unicode="+" d="M27 216l18 99h206l38 215h107l-37 -215h207l-19 -99h-206l-38 -216h-108l38 216h-206z"/>
<glyph glyph-name="comma" horiz-adv-x="230" unicode="," d="M-6 0l23 132h132l-15 -85q-15 -88 -44.5 -130.5t-99.5 -68.5l-21 48q73 30 86 104h-61z"/>
<glyph glyph-name="hyphen" horiz-adv-x="381" unicode="-" d="M24 215l18 101h302l-18 -101h-302z"/>
<glyph glyph-name="period" horiz-adv-x="229" unicode="." d="M-6 0l23 132h132l-23 -132h-132z"/>
<glyph glyph-name="slash" horiz-adv-x="524" unicode="/" d="M-102 -200l599 955h118q-89 -141 -291 -462.5t-310 -492.5h-116z"/>
<glyph glyph-name="zero" horiz-adv-x="659" unicode="0" d="M359 468q-78 0 -138.5 -68.5t-60.5 -159.5q0 -72 33.5 -112t97.5 -40q78 0 138 68t60 159q0 72 -33.5 112.5t-96.5 40.5zM274 -12q-103 0 -170 66t-67 179q0 145 99 239.5t238 94.5q103 0 170.5 -66t67.5 -179q0 -145 -99.5 -239.5t-238.5 -94.5z"/>
<glyph glyph-name="one" horiz-adv-x="416" unicode="1" d="M253 0h-120l78 442l-125 -46l-38 92l213 76h92z"/>
<glyph glyph-name="two" horiz-adv-x="604" unicode="2" d="M14 0l3 34q6 66 40.5 116t81.5 76.5t101 48.5t99.5 36t75.5 35.5t30 49.5q0 35 -28.5 55.5t-85.5 20.5q-97 0 -195 -77l-59 81q124 91 266 91q102 0 162 -46.5t60 -120.5q0 -47 -28 -83t-71 -57t-94.5 -41t-97 -34.5t-80.5 -37t-43 -50.5h360l-17 -97h-480z"/>
<glyph glyph-name="three" horiz-adv-x="593" unicode="3" d="M-21 -95l57 82q83 -49 171 -49q84 0 137.5 39t53.5 103q0 90 -128 90h-101l15 92h96q70 0 108 32t38 85q0 92 -120 92q-80 0 -185 -73l-53 80q118 89 258 89q99 0 161 -51t62 -129q0 -121 -131 -170q102 -37 102 -145q0 -105 -93 -168t-227 -63q-129 0 -221 64z"/>
<glyph glyph-name="four" horiz-adv-x="643" unicode="4" d="M127 94h242l57 331zM25 0l-24 91l433 465h131l-81 -462h96l-16 -94h-96l-26 -146h-116l26 146h-327z"/>
<glyph glyph-name="five" horiz-adv-x="579" unicode="5" d="M-30 -95l55 84q79 -48 170 -48q79 0 133 47t54 116q0 107 -117 107q-55 0 -143 -31l-59 41l71 335h409l-16 -94h-303l-38 -185q63 27 125 27q83 0 138 -53t55 -139q0 -121 -91 -195.5t-222 -74.5q-119 0 -221 63z"/>
<glyph glyph-name="six" horiz-adv-x="624" unicode="6" d="M168 287q-2 -12 -2 -44q0 -71 32 -115t94 -44q73 0 115.5 50t42.5 117q0 53 -28.5 82.5t-80.5 29.5q-87 0 -173 -76zM44 272q0 192 108 316t269 124q102 0 184 -48l-55 -81q-63 33 -134 33q-81 0 -152 -65.5t-85 -167.5q93 69 193 69q90 0 143.5 -53.5t53.5 -141.5 q0 -113 -81 -191t-213 -78q-113 0 -172 78t-59 206z"/>
<glyph glyph-name="seven" horiz-adv-x="567" unicode="7" d="M48 -145l378 601h-359l17 100h486l-15 -86l-373 -615h-134z"/>
<glyph glyph-name="eight" horiz-adv-x="656" unicode="8" d="M345 407q69 7 111 42t42 84q0 41 -29.5 64t-86.5 23q-62 0 -106 -33.5t-44 -81.5q0 -39 29.5 -65t83.5 -33zM147 176q0 -45 36.5 -70.5t105.5 -25.5q77 0 127.5 34t50.5 89q0 47 -36 76t-101 37q-77 -9 -130 -47.5t-53 -92.5zM24 165q0 76 53.5 128t136.5 76 q-101 46 -101 140q0 91 79.5 147t203.5 56q97 0 159 -47t62 -123q0 -66 -41.5 -113.5t-112.5 -70.5q126 -46 126 -156q0 -99 -87.5 -156.5t-229.5 -57.5q-113 0 -180.5 48t-67.5 129z"/>
<glyph glyph-name="nine" horiz-adv-x="624" unicode="9" d="M271 192q87 0 173 76q2 12 2 44q0 71 -32 115t-94 44q-73 0 -115.5 -50t-42.5 -117q0 -53 28.5 -82.5t80.5 -29.5zM240 103q-90 0 -143.5 53.5t-53.5 141.5q0 114 78 191.5t205 77.5q118 0 180 -78t62 -206q0 -192 -107.5 -316.5t-268.5 -124.5q-105 0 -192 59l61 78 q57 -40 135 -40q81 0 152 65.5t85 167.5q-93 -69 -193 -69z"/>
<glyph glyph-name="colon" horiz-adv-x="229" unicode=":" d="M64 398l23 132h132l-23 -132h-132zM-6 0l23 132h132l-23 -132h-132z"/>
<glyph glyph-name="semicolon" horiz-adv-x="229" unicode=";" d="M64 398l23 132h132l-23 -132h-132zM-6 0l23 132h132l-15 -85q-15 -88 -44.5 -130.5t-99.5 -68.5l-21 48q73 30 86 104h-61z"/>
<glyph glyph-name="less" horiz-adv-x="610" unicode="&lt;" d="M502 0l-480 213l19 105l554 212l-21 -122l-405 -146l354 -149z"/>
<glyph glyph-name="equal" horiz-adv-x="605" unicode="=" d="M49 337l18 99h521l-19 -99h-520zM6 94l18 99h521l-19 -99h-520z"/>
<glyph glyph-name="greater" horiz-adv-x="610" unicode="&gt;" d="M95 530l481 -213l-18 -105l-556 -212l22 121l407 150l-355 145z"/>
<glyph glyph-name="question" horiz-adv-x="535" unicode="?" d="M108 0l19 117h130l-19 -117h-130zM164 211q0 14 3 29q8 47 36.5 84.5t62 60t66.5 43t55 45t22 53.5q0 39 -29.5 63t-72.5 24q-81 0 -165 -73l-66 73q107 99 239 99q90 0 153.5 -47t63.5 -129q0 -49 -26 -88t-64.5 -64t-77.5 -47.5t-69.5 -50t-36.5 -59.5l-3 -16h-91z"/>
<glyph glyph-name="at" horiz-adv-x="835" unicode="@" d="M317 237q0 -35 15 -54t42 -19q29 0 53.5 21t35.5 62l38 130q-26 26 -64 26q-52 0 -86 -53.5t-34 -112.5zM65 282q0 150 106 256.5t256 106.5q147 0 244.5 -93t97.5 -234q0 -109 -61.5 -172.5t-137.5 -63.5q-44 0 -71.5 19t-36.5 50q-44 -55 -110 -55q-52 0 -86.5 36.5 t-34.5 99.5q0 90 54.5 165.5t144.5 75.5q58 0 90 -45l16 35h73l-68 -238q-6 -21 -6 -37q0 -48 49 -48q50 0 88 48.5t38 129.5q0 117 -80 192.5t-202 75.5q-125 0 -214 -89.5t-89 -214.5t89 -213.5t214 -88.5q92 0 169 52l34 -49q-93 -63 -204 -63q-150 0 -256 106t-106 256z "/>
<glyph glyph-name="A" horiz-adv-x="695" unicode="A" d="M397 574l-168 -326h223l-53 326h-2zM-32 0l376 700h144l127 -700h-123l-25 151h-288l-77 -151h-134z"/>
<glyph glyph-name="B" horiz-adv-x="663" unicode="B" d="M212 403h155q66 0 102.5 33t36.5 82q0 82 -107 82h-152zM158 100h172q70 0 110 32t40 87q0 43 -29 66t-80 23h-175zM20 0l124 700h275q100 0 156 -48.5t56 -124.5q0 -121 -134 -169q105 -37 105 -144q0 -101 -73.5 -157.5t-212.5 -56.5h-296z"/>
<glyph glyph-name="C" horiz-adv-x="697" unicode="C" d="M47 299q0 174 117.5 293.5t295.5 119.5q138 0 232 -89l-72 -78q-69 63 -168 63q-114 0 -197.5 -88t-83.5 -215q0 -99 54 -156t142 -57q96 0 188 82l68 -85q-121 -101 -270 -101q-131 0 -218.5 84.5t-87.5 226.5z"/>
<glyph glyph-name="D" horiz-adv-x="712" unicode="D" d="M159 101h99q140 0 219 84t79 213q0 102 -50.5 151.5t-155.5 49.5h-103zM20 0l124 700h212q151 0 238 -76.5t87 -217.5q0 -86 -27 -158.5t-80 -128.5t-138.5 -87.5t-194.5 -31.5h-221z"/>
<glyph glyph-name="E" horiz-adv-x="626" unicode="E" d="M20 0l124 700h490l-19 -106h-368l-34 -189h330l-17 -98h-330l-36 -201h374l-19 -106h-495z"/>
<glyph glyph-name="F" horiz-adv-x="612" unicode="F" d="M20 0l124 700h481l-19 -106h-359l-36 -197h312l-20 -102h-309l-52 -295h-122z"/>
<glyph glyph-name="G" horiz-adv-x="720" unicode="G" d="M47 297q0 177 117 296t300 119q67 0 130 -22.5t107 -59.5l-71 -79q-72 57 -173 57q-119 0 -202.5 -87.5t-83.5 -217.5q0 -97 53.5 -154t141.5 -57q82 0 143 39l28 161h-171l16 89h284l-57 -317q-116 -76 -257 -76q-133 0 -219 85t-86 224z"/>
<glyph glyph-name="H" horiz-adv-x="696" unicode="H" d="M20 0l124 700h121l-51 -292h303l52 292h121l-123 -700h-122l54 303h-303l-54 -303h-122z"/>
<glyph glyph-name="I" horiz-adv-x="271" unicode="I" d="M20 0l124 700h121l-123 -700h-122z"/>
<glyph glyph-name="J" horiz-adv-x="567" unicode="J" d="M10 135l93 48q26 -46 54 -71t71 -25q106 0 131 147l82 466h122l-82 -467q-21 -119 -86 -182t-171 -63q-75 0 -129.5 40t-84.5 107z"/>
<glyph glyph-name="K" horiz-adv-x="667" unicode="K" d="M20 0l124 700h121l-61 -344l349 344h142l-272 -267l164 -433h-124l-127 348l-161 -158l-33 -190h-122z"/>
<glyph glyph-name="L" horiz-adv-x="597" unicode="L" d="M20 0l124 700h121l-104 -594h362l-19 -106h-484z"/>
<glyph glyph-name="M" horiz-adv-x="843" unicode="M" d="M20 0l124 700h113l169 -327l280 327h131l-124 -700h-116l91 520l-287 -328l-173 328l-90 -520h-118z"/>
<glyph glyph-name="N" horiz-adv-x="722" unicode="N" d="M20 0l124 700h101l264 -509l90 509h117l-124 -700h-104l-261 509l-90 -509h-117z"/>
<glyph glyph-name="O" d="M174 304q0 -100 52.5 -156t141.5 -56q111 0 193 87t82 217q0 100 -52.5 156.5t-140.5 56.5q-111 0 -193.5 -87.5t-82.5 -217.5zM50 292q0 177 116 298.5t291 121.5q131 0 220.5 -81t89.5 -223q0 -177 -116 -298.5t-291 -121.5q-131 0 -220.5 81t-89.5 223z" unicode="O"/>
<glyph glyph-name="P" horiz-adv-x="656" unicode="P" d="M207 364h158q73 0 114.5 41.5t41.5 98.5q0 96 -113 96h-160zM20 0l124 700h275q109 0 167 -54.5t58 -138.5q0 -101 -70 -171t-223 -70h-162l-47 -266h-122z"/>
<glyph glyph-name="Q" d="M419 257l66 57l97 -109q61 82 61 191q0 100 -52.5 156.5t-140.5 56.5q-111 0 -193.5 -87.5t-82.5 -217.5q0 -100 52.5 -156t141.5 -56q86 0 156 53zM50 292q0 177 116 298.5t291 121.5q131 0 220.5 -81t89.5 -223q0 -169 -107 -289l75 -81l-67 -58l-73 81 q-103 -73 -235 -73q-131 0 -220.5 81t-89.5 223z" unicode="Q"/>
<glyph glyph-name="R" horiz-adv-x="683" unicode="R" d="M207 364h175q72 0 113.5 42t41.5 98q0 96 -113 96h-176zM20 0l124 700h291q105 0 165.5 -54t60.5 -137q0 -81 -45 -140.5t-130 -83.5l84 -285h-120l-70 270h-11h-179l-48 -270h-122z"/>
<glyph glyph-name="S" horiz-adv-x="616" unicode="S" d="M12 74l67 89q98 -68 195 -68q71 0 111 30.5t40 75.5q0 42 -29.5 61t-104.5 40q-7 2 -11 3q-41 12 -69.5 24t-59 33t-46.5 53.5t-16 75.5q0 95 74.5 158t202.5 63q124 0 233 -64l-57 -91q-90 49 -184 49q-61 0 -101 -30t-40 -75q0 -17 7 -30.5t14.5 -21.5t29 -17.5 t33.5 -13t46 -13.5q6 -2 10 -3q34 -10 56 -18t51 -24t46 -34.5t29.5 -48t12.5 -66.5q0 -98 -75 -160.5t-215 -62.5q-137 0 -250 86z"/>
<glyph glyph-name="T" horiz-adv-x="649" unicode="T" d="M210 0l105 593h-237l18 107h594l-19 -107h-235l-104 -593h-122z"/>
<glyph glyph-name="U" horiz-adv-x="711" unicode="U" d="M67 283l75 417h122l-77 -425q-6 -30 -6 -64q0 -59 37 -89.5t100 -30.5q71 0 123.5 45.5t67.5 133.5l75 430h121l-76 -437q-23 -133 -111 -204t-220 -71q-107 0 -172.5 57.5t-65.5 160.5q0 37 7 77z"/>
<glyph glyph-name="V" horiz-adv-x="692" unicode="V" d="M221 0l-128 700h122l94 -561h2l291 561h135l-375 -700h-141z"/>
<glyph glyph-name="W" horiz-adv-x="1029" unicode="W" d="M186 0l-91 700h121l64 -529h2l237 529h113l57 -529h2l252 529h130l-340 -700h-131l-54 511h-2l-230 -511h-130z"/>
<glyph glyph-name="X" horiz-adv-x="700" unicode="X" d="M-22 0l308 361l-169 339h133l121 -249l204 249h154l-295 -348l175 -352h-132l-126 264l-219 -264h-154z"/>
<glyph glyph-name="Y" horiz-adv-x="679" unicode="Y" d="M224 0l50 283l-184 417h131l129 -299h2l231 299h145l-333 -419l-49 -281h-122z"/>
<glyph glyph-name="Z" horiz-adv-x="639" unicode="Z" d="M-4 0l16 94l455 498h-366l19 108h532l-17 -93l-453 -498h377l-19 -109h-544z"/>
<glyph glyph-name="bracketleft" horiz-adv-x="413" unicode="[" d="M278 -114l-16 -86h-270l167 955h272l-15 -86h-154l-138 -783h154z"/>
<glyph glyph-name="backslash" horiz-adv-x="524" unicode="\" d="M449 -200h-111l-267 955h111z"/>
<glyph glyph-name="bracketright" horiz-adv-x="413" unicode="]" d="M-17 -114h153l138 783h-153l15 86h270l-168 -955h-269z"/>
<glyph glyph-name="asciicircum" horiz-adv-x="558" unicode="^" d="M135 562l169 183h110l103 -183h-80l-85 95l-123 -95h-94z"/>
<glyph glyph-name="underscore" horiz-adv-x="545" unicode="_" d="M-57 -13h546l-18 -102h-547z"/>
<glyph glyph-name="grave" horiz-adv-x="607" unicode="`" d="M383 584l-114 126l85 60l105 -186h-76z"/>
<glyph glyph-name="a" horiz-adv-x="603" unicode="a" d="M392 192l36 210q-54 48 -116 48q-70 0 -117 -67.5t-47 -168.5q0 -68 25.5 -101.5t67.5 -33.5q80 0 151 113zM214 -12q-78 0 -131 57.5t-53 159.5q0 144 77.5 240t192.5 96q46 0 85 -19t63 -48l15 55h103l-69 -389q-3 -18 -3 -26q0 -33 41 -33l-14 -83q-120 0 -132 80 q-71 -90 -175 -90z"/>
<glyph glyph-name="b" horiz-adv-x="597" unicode="b" d="M154 133q51 -54 117 -54q75 0 119.5 71t44.5 172q0 66 -25.5 96.5t-67.5 30.5q-77 0 -150 -107zM16 0l133 755h116l-54 -301q72 85 161 85q81 0 131 -58t50 -161q0 -143 -75 -236.5t-192 -93.5q-87 0 -149 70l-18 -60h-103z"/>
<glyph glyph-name="c" horiz-adv-x="520" unicode="c" d="M28 219q0 138 87.5 230t218.5 92q104 0 170 -66l-65 -71q-51 41 -116 41q-71 0 -123.5 -61t-52.5 -153q0 -70 32 -108.5t86 -38.5q63 0 127 50l59 -77q-85 -69 -200 -69q-92 0 -157.5 62.5t-65.5 168.5z"/>
<glyph glyph-name="d" horiz-adv-x="598" unicode="d" d="M243 79q80 0 150 113l36 210q-54 48 -116 48q-71 0 -117.5 -67.5t-46.5 -166.5q0 -71 26 -104t68 -33zM212 -10q-76 0 -128.5 57.5t-52.5 159.5q0 142 76.5 237t191.5 95q86 0 144 -58l49 274h115l-133 -755h-93l4 79q-39 -45 -78 -67t-95 -22z"/>
<glyph glyph-name="e" horiz-adv-x="567" unicode="e" d="M337 454q-54 0 -101 -35.5t-71 -96.5h68q95 0 138.5 21.5t43.5 54.5q0 24 -21 40t-57 16zM28 218q0 135 90.5 229t227.5 94q83 0 134 -42t51 -101q0 -77 -82.5 -118t-224.5 -41h-77v-17q0 -140 124 -140q71 0 147 48l45 -78q-90 -64 -207 -64q-101 0 -164.5 62.5 t-63.5 167.5z"/>
<glyph glyph-name="f" horiz-adv-x="395" unicode="f" d="M51 0l77 437h-88l16 85h86l7 35q18 104 79 154.5t154 50.5q65 0 115 -24l-45 -78q-33 12 -66 12q-49 0 -80 -29t-43 -97l-5 -24h139l-16 -85h-137l-77 -437h-116z"/>
<glyph glyph-name="g" horiz-adv-x="597" unicode="g" d="M392 197l35 205q-54 48 -117 48q-68 0 -115.5 -68t-47.5 -166q0 -66 26 -98.5t66 -32.5q79 0 153 112zM360 24l11 58q-68 -86 -168 -86q-72 0 -123 55t-51 161q0 143 78 235t191 92q92 0 148 -63l15 53h104l-93 -524q-18 -103 -78.5 -159t-183.5 -56q-57 0 -113 21.5 t-95 55.5l62 77q77 -61 154 -61q60 0 94 32t48 109z"/>
<glyph glyph-name="h" horiz-adv-x="587" unicode="h" d="M16 0l134 755h115l-55 -312q82 96 177 96q67 0 105.5 -37t38.5 -98q0 -33 -9 -82l-58 -322h-115l60 337q6 34 6 56q0 58 -58 58q-77 0 -167 -126l-58 -325h-116z"/>
<glyph glyph-name="i" horiz-adv-x="256" unicode="i" d="M128 636l20 111h115l-19 -111h-116zM16 0l93 524h115l-92 -524h-116z"/>
<glyph glyph-name="j" horiz-adv-x="260" unicode="j" d="M131 636l20 111h115l-19 -111h-116zM19 -4l93 528h116l-96 -540q-17 -100 -64.5 -147t-131.5 -47q-58 0 -101 32l47 78q32 -15 51 -15q34 0 55 25.5t31 85.5z"/>
<glyph glyph-name="k" horiz-adv-x="552" unicode="k" d="M16 0l133 755h116l-81 -461l241 235h136l-201 -191l113 -338h-118l-80 257l-117 -111l-26 -146h-116z"/>
<glyph glyph-name="l" horiz-adv-x="256" unicode="l" d="M16 0l133 755h116l-133 -755h-116z"/>
<glyph glyph-name="m" horiz-adv-x="897" unicode="m" d="M185 326l-58 -326h-114l91 529h96l-3 -91q35 46 83 74t103 28q57 0 91 -28.5t42 -73.5q86 102 191 102q63 0 99 -35t36 -92q0 -40 -9 -90l-58 -323h-113l60 339q6 32 6 55q0 57 -55 57q-77 0 -163 -118q0 -2 -0.5 -4.5t-0.5 -3.5l-58 -325h-113l60 340q6 32 6 53 q0 58 -55 58q-76 0 -164 -125z"/>
<glyph glyph-name="n" horiz-adv-x="584" unicode="n" d="M345 0l60 338q6 34 6 55q0 58 -57 58q-78 0 -168 -126l-57 -325h-116l92 529h96l-3 -91q82 101 188 101q66 0 103.5 -37.5t37.5 -96.5q0 -35 -9 -85l-58 -320h-115z"/>
<glyph glyph-name="o" horiz-adv-x="603" unicode="o" d="M268 79q71 0 123 68t52 159q0 70 -31.5 107t-88.5 37q-71 0 -123.5 -68.5t-52.5 -159.5q0 -70 31.5 -106.5t89.5 -36.5zM257 -12q-101 0 -164 63t-63 170q0 137 86.5 228.5t215.5 91.5q102 0 165 -63t63 -171q0 -137 -86.5 -228t-216.5 -91z"/>
<glyph glyph-name="p" horiz-adv-x="597" unicode="p" d="M154 133q48 -54 116 -54q76 0 120.5 71t44.5 171q0 128 -94 128q-75 0 -150 -106zM141 56l-47 -256h-114l127 729h101l-3 -75q75 85 168 85q79 0 129.5 -57t50.5 -161q0 -145 -75.5 -238t-190.5 -93q-87 0 -146 66z"/>
<glyph glyph-name="q" horiz-adv-x="597" unicode="q" d="M240 79q73 0 153 113l36 210q-54 48 -116 48q-71 0 -117.5 -67.5t-46.5 -168.5q0 -69 25 -102t66 -33zM212 -10q-77 0 -129 57t-52 160q0 145 78 238.5t191 93.5q45 0 85.5 -18.5t63.5 -46.5l15 55h103l-129 -729h-115l48 271q-68 -81 -159 -81z"/>
<glyph glyph-name="r" horiz-adv-x="418" unicode="r" d="M13 0l92 529h95l-3 -94q71 108 174 108q40 0 70 -15l-38 -101q-26 12 -61 12q-76 0 -159 -133l-55 -306h-115z"/>
<glyph glyph-name="s" horiz-adv-x="489" unicode="s" d="M-6 55l56 77q70 -53 152 -53q47 0 79 19t32 52q0 30 -27 45.5t-80 28.5q-151 37 -151 150q0 80 64.5 123t162.5 43q95 0 181 -52l-57 -78q-66 39 -135 39q-40 0 -70.5 -20t-30.5 -52q0 -29 28 -44.5t81 -27.5q70 -16 109 -48.5t39 -96.5q0 -83 -64 -127.5t-172 -44.5 q-105 0 -197 67z"/>
<glyph glyph-name="t" horiz-adv-x="410" unicode="t" d="M86 192l45 250h-88l15 87h87l25 142h115l-25 -142h145l-14 -87h-146l-47 -265q-5 -30 -5 -51q0 -44 43 -44q34 0 81 30l38 -81q-65 -43 -146 -43q-60 0 -96.5 33t-36.5 86q0 33 10 85z"/>
<glyph glyph-name="u" horiz-adv-x="581" unicode="u" d="M551 529l-93 -529h-93l2 90q-85 -102 -191 -102q-66 0 -102.5 37.5t-36.5 98.5q0 36 7 80l58 325h115l-60 -340q-5 -32 -5 -54q0 -57 57 -57q77 0 170 125l56 326h116z"/>
<glyph glyph-name="v" horiz-adv-x="519" unicode="v" d="M140 0l-84 529h108l57 -402h2l196 402h120l-271 -529h-128z"/>
<glyph glyph-name="w" horiz-adv-x="821" unicode="w" d="M138 0l-82 529h109l54 -381h2l172 381h98l42 -381h2l186 381h120l-268 -529h-111l-44 365h-2l-170 -365h-108z"/>
<glyph glyph-name="x" horiz-adv-x="526" unicode="x" d="M-29 0l219 270l-119 259h114l79 -181l140 181h131l-213 -265l121 -264h-112l-84 188l-148 -188h-128z"/>
<glyph glyph-name="y" horiz-adv-x="523" unicode="y" d="M-30 -96q36 -19 67 -19q51 0 85 62l31 56l-98 526h111l63 -381h2l190 381h122l-312 -594q-44 -84 -87.5 -114.5t-107.5 -30.5q-55 0 -108 31z"/>
<glyph glyph-name="z" horiz-adv-x="506" unicode="z" d="M-9 0l15 78l327 359h-258l16 92h404l-13 -80l-328 -358h274l-15 -91h-422z"/>
<glyph glyph-name="braceleft" horiz-adv-x="476" unicode="{" d="M344 -115l-15 -85h-64q-78 0 -121.5 33t-43.5 99q0 17 3 38l31 172q3 12 3 28q0 52 -67 52h-54l18 104h55q42 0 63.5 20t29.5 66l31 178q16 91 63 128t149 37h72l-14 -85h-56q-83 0 -97 -80l-31 -179q-10 -61 -38.5 -94t-80.5 -46v-1q74 -30 74 -97q0 -19 -5 -42 l-29 -166q-3 -17 -3 -30q0 -50 68 -50h59z"/>
<glyph glyph-name="bar" horiz-adv-x="305" unicode="|" d="M8 -200l168 955h111l-169 -955h-110z"/>
<glyph glyph-name="braceright" horiz-adv-x="476" unicode="}" d="M122 670l15 85h64q77 0 121.5 -31.5t44.5 -96.5q0 -22 -4 -42l-34 -179q-2 -14 -2 -25q0 -29 16 -42t52 -13h54l-19 -104h-54q-42 0 -63.5 -20t-29.5 -66l-30 -171q-17 -91 -63.5 -128t-148.5 -37h-73l15 85h56q83 0 97 80l30 171q11 62 39 95t80 46v1q-74 28 -74 99 q0 22 3 40l31 173q4 22 4 30q0 50 -68 50h-59z"/>
<glyph glyph-name="asciitilde" horiz-adv-x="558" unicode="~" d="M48 197q2 73 37 121t102 48q35 0 66.5 -20.5t58.5 -41t52 -20.5q43 0 52 66h82q0 -76 -34.5 -122.5t-103.5 -46.5q-34 0 -65.5 20.5t-59 41.5t-51.5 21q-46 0 -53 -67h-83z"/>
<glyph glyph-name="nbspace" horiz-adv-x="242" unicode=" "/>
<glyph glyph-name="exclamdown" horiz-adv-x="271" unicode="¡" d="M241 530l-20 -117h-130l20 117h130zM170 319l-36 -362l-23 -127h-120l23 127l95 362h61z"/>
<glyph glyph-name="cent" horiz-adv-x="607" unicode="¢" d="M155 251q0 -102 66 -145l150 366q-90 -1 -153 -64t-63 -157zM36 243q0 140 95 232t246 92q5 0 13 -0.5t13 -0.5l38 91h71l-43 -103q59 -18 109 -60l-65 -73q-37 31 -86 44l-157 -378q16 -4 38 -4q83 0 159 65l66 -77q-103 -83 -235 -83q-29 0 -59 5l-53 -126h-71l61 145 q-66 29 -103 90t-37 141z"/>
<glyph glyph-name="sterling" horiz-adv-x="610" unicode="£" d="M103 48q48 0 84 47q-44 34 -79 34q-22 0 -36.5 -11.5t-14.5 -29.5q0 -40 46 -40zM65 258l13 71h87q-21 47 -21 86q0 65 52 109t145 44q63 0 109 -28t66 -74l-87 -38q-10 23 -34 38.5t-55 15.5q-37 0 -60.5 -19.5t-23.5 -51.5q0 -31 24 -84h145l-12 -68h-102 q10 -30 10 -61q0 -51 -24 -96q49 -27 93 -27q73 0 73 86v6h100q0 -3 0.5 -8.5t0.5 -8.5q0 -79 -43 -120.5t-119 -41.5q-72 0 -150 57q-63 -57 -151 -57q-51 0 -81.5 27.5t-30.5 71.5q0 45 33.5 74t84.5 29q46 0 107 -36q3 14 3 30q0 36 -16 74h-136z"/>
<glyph glyph-name="currency" horiz-adv-x="655" unicode="¤" d="M159 242q0 -63 35.5 -101t99.5 -38q74 0 133 58t59 134q0 63 -35 101t-100 38q-74 0 -133 -58t-59 -134zM53 235q0 114 76 198l-46 60l57 46l45 -57q83 55 182 55q79 0 142 -50l59 54l49 -53l-61 -55q37 -60 37 -131q0 -118 -79 -203l45 -56l-58 -45l-44 54 q-79 -52 -178 -52q-82 0 -144 51l-62 -55l-48 52l63 58q-35 57 -35 129z"/>
<glyph glyph-name="yen" horiz-adv-x="595" unicode="¥" d="M52 211l12 69h169l-167 276h129l105 -181h1l169 181h145l-263 -276h169l-12 -69h-170l-10 -57h170l-12 -68h-170l-15 -86h-119l15 86h-168l12 68h168l10 57h-168z"/>
<glyph glyph-name="brokenbar" horiz-adv-x="305" unicode="¦" d="M106 353l70 402h111l-71 -402h-110zM74 177h110l-66 -377h-110z"/>
<glyph glyph-name="section" horiz-adv-x="531" unicode="§" d="M346 184q0 16 -8.5 28.5t-26 23.5t-34 18t-43.5 18.5t-43 18.5q-43 -28 -43 -64q0 -16 8.5 -28.5t26 -23.5t34 -18t43.5 -18.5t43 -18.5q43 28 43 64zM452 198q0 -73 -85 -120q39 -37 39 -89q0 -65 -58 -105.5t-156 -40.5q-58 0 -110.5 22t-82.5 60l78 55q47 -50 117 -50 q40 0 68.5 16t28.5 45q0 22 -25.5 39.5t-62.5 32t-73.5 32t-62 48t-25.5 70.5q0 38 24.5 69t60.5 50q-39 36 -39 90q0 65 58 105.5t156 40.5q58 0 110.5 -22t82.5 -60l-78 -55q-47 50 -117 50q-40 0 -68.5 -16t-28.5 -45q0 -22 25.5 -39.5t62.5 -32t73.5 -32t62 -48 t25.5 -70.5z"/>
<glyph glyph-name="dieresis" horiz-adv-x="623" unicode="¨" d="M215 613l17 102h103l-18 -102h-102zM418 613l18 102h102l-18 -102h-102z"/>
<glyph glyph-name="copyright" horiz-adv-x="847" unicode="©" d="M118 282q0 -125 88.5 -213.5t213.5 -88.5t214 88.5t89 213.5t-89 214.5t-214 89.5t-213.5 -89.5t-88.5 -214.5zM57 282q0 150 106 256.5t256 106.5t256.5 -106.5t106.5 -256.5t-106.5 -256t-256.5 -106t-256 106t-106 256zM223 282q0 83 57.5 139.5t146.5 56.5 q79 0 144 -53l-47 -60q-52 37 -95 37q-51 0 -84.5 -34t-33.5 -86q0 -55 33 -87.5t85 -32.5q55 0 97 39l53 -55q-65 -62 -153 -62q-91 0 -147 54.5t-56 143.5z"/>
<glyph glyph-name="ordfeminine" horiz-adv-x="380" unicode="ª" d="M136 433q0 -16 11 -26t31 -10q48 0 83 32l14 74q-60 -1 -99.5 -18t-39.5 -52zM55 424q0 124 229 131l7 37q2 12 2 15q0 32 -46 32q-51 0 -121 -34l-21 64q74 37 147 37q60 0 89.5 -25t29.5 -67q0 -7 -2 -23l-28 -159q-1 -5 -1 -12q0 -11 6.5 -15t21.5 -4l-10 -60 q-71 0 -89 39q-49 -46 -113 -46q-45 0 -73 25t-28 65z"/>
<glyph glyph-name="guillemotleft" horiz-adv-x="628" unicode="«" d="M537 57l-85 -57l-163 266l228 264l77 -64l-186 -208zM279 57l-85 -57l-163 266l228 264l77 -64l-186 -208z"/>
<glyph glyph-name="logicalnot" horiz-adv-x="627" unicode="¬" d="M84 458l17 98h513l-52 -289h-119l34 191h-393z"/>
<glyph glyph-name="registered" horiz-adv-x="847" unicode="®" d="M118 282q0 -125 88.5 -213.5t213.5 -88.5t214 88.5t89 213.5t-89 214.5t-214 89.5t-213.5 -89.5t-88.5 -214.5zM57 282q0 150 106 256.5t256 106.5t256.5 -106.5t106.5 -256.5t-106.5 -256t-256.5 -106t-256 106t-106 256zM355 296h86q34 0 50.5 15.5t16.5 36.5 q0 23 -16 39t-51 16h-86v-107zM269 95v376h181q73 0 108 -35.5t35 -87.5q0 -33 -18 -62t-54 -45q8 -13 38.5 -71.5t41.5 -74.5h-93l-69 136h-84v-136h-86z"/>
<glyph glyph-name="macron" horiz-adv-x="619" unicode="¯" d="M218 625l14 77h307l-14 -77h-307z"/>
<glyph glyph-name="degree" horiz-adv-x="413" unicode="°" d="M247 454q39 0 66 26t27 68q0 41 -27.5 67.5t-65.5 26.5t-66.5 -26.5t-28.5 -67.5q0 -42 28.5 -68t66.5 -26zM247 384q-71 0 -120.5 45t-49.5 119q0 71 50 118t119 47q68 0 118 -47t50 -118q0 -75 -48.5 -119.5t-118.5 -44.5z"/>
<glyph glyph-name="plusminus" horiz-adv-x="605" unicode="±" d="M-12 0l14 82h207l29 165h-206l19 100h206l32 183h107l-31 -183h207l-20 -100h-206l-29 -165h206l-14 -82h-521z"/>
<glyph glyph-name="two.sups" horiz-adv-x="337" unicode="²" d="M80 500l4 36q5 44 29.5 76t56.5 49.5t63.5 31.5t53 29.5t21.5 35.5q0 40 -50 40t-99 -42l-44 48q63 59 147 59q54 0 88 -30.5t34 -73.5q0 -35 -21 -61t-51.5 -41t-61.5 -27.5t-54.5 -29t-26.5 -36.5h178l-10 -64h-257z"/>
<glyph glyph-name="three.sups" horiz-adv-x="344" unicode="³" d="M84 531l36 53q44 -28 89 -28q35 0 57.5 17.5t22.5 44.5q0 35 -53 35h-57l10 62h53q63 0 63 45q0 17 -13.5 28.5t-37.5 11.5q-42 0 -95 -36l-37 51q67 48 142 48q51 0 84.5 -27t33.5 -69q0 -57 -59 -84q44 -21 44 -69q0 -56 -45 -88.5t-114 -32.5q-70 0 -124 38z"/>
<glyph glyph-name="acute" horiz-adv-x="607" unicode="´" d="M246 584l163 186l80 -60l-166 -126h-77z"/>
<glyph glyph-name="mu" horiz-adv-x="567" unicode="µ" d="M-32 -200l134 756h119l-66 -369q-5 -25 -5 -43q0 -63 62 -63q73 0 161 122l62 353h120l-98 -556h-100l3 85q-72 -95 -165 -95q-47 0 -74 31l-48 -221h-105z"/>
<glyph glyph-name="paragraph" horiz-adv-x="707" unicode="¶" d="M269 0l49 277h-33q-104 0 -155 53t-51 128q0 42 16 83t48 77.5t87.5 59t126.5 22.5h338l-123 -700h-107l108 613h-89l-109 -613h-106z"/>
<glyph glyph-name="periodcentered" horiz-adv-x="228" unicode="·" d="M29 199l24 132h132l-23 -132h-133z"/>
<glyph glyph-name="cedilla" horiz-adv-x="607" unicode="¸" d="M120 -177q127 86 163 191h81q-36 -140 -158 -234z"/>
<glyph glyph-name="one.sups" horiz-adv-x="316" unicode="¹" d="M88 500l11 63h81l37 209l-65 -32l-30 58l128 59h60l-52 -294h72l-10 -63h-232z"/>
<glyph glyph-name="ordmasculine" horiz-adv-x="415" unicode="º" d="M264 641q-50 0 -84.5 -44.5t-34.5 -103.5q0 -94 83 -94q50 0 84.5 44.5t34.5 103.5q0 94 -83 94zM219 334q-66 0 -110 43t-44 113q0 95 58.5 155.5t149.5 60.5q66 0 110 -43t44 -113q0 -95 -58.5 -155.5t-149.5 -60.5z"/>
<glyph glyph-name="guillemotright" horiz-adv-x="628" unicode="»" d="M327 474l86 56l163 -264l-228 -266l-77 65l186 210zM69 474l86 56l163 -264l-228 -266l-77 65l186 210z"/>
<glyph glyph-name="onequarter" horiz-adv-x="787" unicode="¼" d="M65 0l696 700h93l-696 -700h-93zM75 343l11 63h81l37 209l-65 -32l-30 58l128 59h60l-52 -294h72l-10 -63h-232zM529 133h94l25 134zM462 71l-16 57l206 228h85l-39 -223h43l-10 -62h-44l-13 -71h-75l13 71h-150z"/>
<glyph glyph-name="onehalf" horiz-adv-x="886" unicode="½" d="M65 0l696 700h93l-696 -700h-93zM75 343l11 63h81l37 209l-65 -32l-30 58l128 59h60l-52 -294h72l-10 -63h-232zM529 0l4 36q5 44 29.5 76t56.5 49.5t63.5 31.5t53 29.5t21.5 35.5q0 40 -50 40t-99 -42l-44 48q63 59 147 59q54 0 88 -30.5t34 -73.5q0 -35 -21 -61 t-51.5 -41t-61.5 -27.5t-54.5 -29t-26.5 -36.5h178l-10 -64h-257z"/>
<glyph glyph-name="threequarters" horiz-adv-x="779" unicode="¾" d="M55 0l696 700h93l-696 -700h-93zM521 133h94l25 134zM454 71l-16 57l206 228h85l-39 -223h43l-10 -62h-44l-13 -71h-75l13 71h-150zM67 374l36 53q44 -28 89 -28q35 0 57.5 17.5t22.5 44.5q0 35 -53 35h-57l10 62h53q63 0 63 45q0 17 -13.5 28.5t-37.5 11.5 q-42 0 -95 -36l-37 51q67 48 142 48q51 0 84.5 -27t33.5 -69q0 -57 -59 -84q44 -21 44 -69q0 -56 -45 -88.5t-114 -32.5q-70 0 -124 38z"/>
<glyph glyph-name="questiondown" horiz-adv-x="524" unicode="¿" d="M414 530l-19 -117h-130l19 117h130zM358 319q0 -14 -3 -29q-8 -47 -36.5 -84.5t-62 -60t-66.5 -43t-55 -45t-22 -53.5q0 -39 29.5 -63t72.5 -24q81 0 165 73l66 -73q-107 -99 -239 -99q-90 0 -153.5 47t-63.5 129q0 49 26 88t64.5 64t77.5 47.5t69.5 50t36.5 59.5l3 16 h91z"/>
<glyph glyph-name="Agrave" horiz-adv-x="695" unicode="À" d="M403 755l-102 84l88 61l88 -145h-74zM397 574l-168 -326h223l-53 326h-2zM-32 0l376 700h144l127 -700h-123l-25 151h-288l-77 -151h-134z"/>
<glyph glyph-name="Aacute" horiz-adv-x="695" unicode="Á" d="M372 755l134 145l86 -61l-139 -84h-81zM397 574l-168 -326h223l-53 326h-2zM-32 0l376 700h144l127 -700h-123l-25 151h-288l-77 -151h-134z"/>
<glyph glyph-name="Acircumflex" horiz-adv-x="695" unicode="Â" d="M248 755l142 124h112l96 -124h-73l-86 62h-2l-105 -62h-84zM397 574l-168 -326h223l-53 326h-2zM-32 0l376 700h144l127 -700h-123l-25 151h-288l-77 -151h-134z"/>
<glyph glyph-name="Atilde" horiz-adv-x="695" unicode="Ã" d="M269 756q2 61 31 95.5t79 34.5q35 0 71 -27.5t51 -27.5q36 0 39 47h71q-3 -62 -32.5 -96t-79.5 -34q-34 0 -70 27t-51 27q-36 0 -38 -46h-71zM397 574l-168 -326h223l-53 326h-2zM-32 0l376 700h144l127 -700h-123l-25 151h-288l-77 -151h-134z"/>
<glyph glyph-name="Adieresis" horiz-adv-x="695" unicode="Ä" d="M273 766l18 102h103l-19 -102h-102zM484 766l19 102h101l-19 -102h-101zM397 574l-168 -326h223l-53 326h-2zM-32 0l376 700h144l127 -700h-123l-25 151h-288l-77 -151h-134z"/>
<glyph glyph-name="Aring" horiz-adv-x="695" unicode="Å" d="M364 754q0 -51 48 -54h5q29 0 49.5 20.5t20.5 49.5q0 25 -13.5 39t-39.5 14q-29 0 -49.5 -20t-20.5 -49zM397 574l-168 -326h223l-53 326h-2zM310 751q0 51 35.5 85.5t92.5 34.5q45 0 73.5 -27.5t28.5 -71.5q0 -61 -48 -96l123 -676h-123l-25 151h-288l-77 -151h-134 l367 683q-25 27 -25 68z"/>
<glyph glyph-name="AE" horiz-adv-x="1032" unicode="Æ" d="M456 583l-200 -332h231l-28 332h-3zM508 0l-13 151h-299l-91 -151h-142l433 700h644l-19 -106h-451l18 -188h361l-17 -100h-335l20 -200h323l-18 -106h-414z"/>
<glyph glyph-name="Ccedilla" horiz-adv-x="697" unicode="Ç" d="M140 -177q113 77 155 170q-110 18 -179 99t-69 207q0 174 117.5 293.5t295.5 119.5q138 0 232 -89l-72 -78q-69 63 -168 63q-114 0 -197.5 -88t-83.5 -215q0 -99 54 -156t142 -57q96 0 188 82l68 -85q-111 -93 -247 -100q-41 -125 -150 -209z"/>
<glyph glyph-name="Egrave" horiz-adv-x="626" unicode="È" d="M20 0l124 700h490l-19 -106h-368l-34 -189h330l-17 -98h-330l-36 -201h374l-19 -106h-495zM368 755l-102 84l88 61l88 -145h-74z"/>
<glyph glyph-name="Eacute" horiz-adv-x="626" unicode="É" d="M20 0l124 700h490l-19 -106h-368l-34 -189h330l-17 -98h-330l-36 -201h374l-19 -106h-495zM343 755l134 145l86 -61l-139 -84h-81z"/>
<glyph glyph-name="Ecircumflex" horiz-adv-x="626" unicode="Ê" d="M225 755l142 124h112l96 -124h-73l-86 62h-2l-105 -62h-84zM20 0l124 700h490l-19 -106h-368l-34 -189h330l-17 -98h-330l-36 -201h374l-19 -106h-495z"/>
<glyph glyph-name="Edieresis" horiz-adv-x="626" unicode="Ë" d="M20 0l124 700h490l-19 -106h-368l-34 -189h330l-17 -98h-330l-36 -201h374l-19 -106h-495zM244 766l18 102h103l-19 -102h-102zM455 766l19 102h101l-19 -102h-101z"/>
<glyph glyph-name="Igrave" horiz-adv-x="271" unicode="Ì" d="M186 755l-102 84l88 61l88 -145h-74zM20 0l124 700h121l-123 -700h-122z"/>
<glyph glyph-name="Iacute" horiz-adv-x="271" unicode="Í" d="M159 755l134 145l86 -61l-139 -84h-81zM20 0l124 700h121l-123 -700h-122z"/>
<glyph glyph-name="Icircumflex" horiz-adv-x="271" unicode="Î" d="M34 755l142 124h112l96 -124h-73l-86 62h-2l-105 -62h-84zM20 0l124 700h121l-123 -700h-122z"/>
<glyph glyph-name="Idieresis" horiz-adv-x="271" unicode="Ï" d="M57 766l18 102h103l-19 -102h-102zM268 766l19 102h101l-19 -102h-101zM20 0l124 700h121l-123 -700h-122z"/>
<glyph glyph-name="Eth" horiz-adv-x="756" unicode="Ð" d="M196 101h99q140 0 219 84t79 213q0 102 -50.5 151.5t-155.5 49.5h-103l-37 -208h172l-13 -77h-173zM16 313l14 78h96l55 309h212q151 0 238 -76.5t87 -217.5q0 -86 -27 -158.5t-80 -128.5t-138.5 -87.5t-194.5 -31.5h-221l55 313h-96z"/>
<glyph glyph-name="Ntilde" horiz-adv-x="722" unicode="Ñ" d="M20 0l124 700h101l264 -509l90 509h117l-124 -700h-104l-261 509l-90 -509h-117zM270 756q2 61 31 95.5t79 34.5q35 0 71 -27.5t51 -27.5q36 0 39 47h71q-3 -62 -32.5 -96t-79.5 -34q-34 0 -70 27t-51 27q-36 0 -38 -46h-71z"/>
<glyph glyph-name="Ograve" d="M174 304q0 -100 52.5 -156t141.5 -56q111 0 193 87t82 217q0 100 -52.5 156.5t-140.5 56.5q-111 0 -193.5 -87.5t-82.5 -217.5zM50 292q0 177 116 298.5t291 121.5q131 0 220.5 -81t89.5 -223q0 -177 -116 -298.5t-291 -121.5q-131 0 -220.5 81t-89.5 223zM442 755 l-102 84l88 61l88 -145h-74z" unicode="Ò"/>
<glyph glyph-name="Oacute" d="M174 304q0 -100 52.5 -156t141.5 -56q111 0 193 87t82 217q0 100 -52.5 156.5t-140.5 56.5q-111 0 -193.5 -87.5t-82.5 -217.5zM50 292q0 177 116 298.5t291 121.5q131 0 220.5 -81t89.5 -223q0 -177 -116 -298.5t-291 -121.5q-131 0 -220.5 81t-89.5 223zM416 755 l134 145l86 -61l-139 -84h-81z" unicode="Ó"/>
<glyph glyph-name="Ocircumflex" d="M291 755l142 124h112l96 -124h-73l-86 62h-2l-105 -62h-84zM174 304q0 -100 52.5 -156t141.5 -56q111 0 193 87t82 217q0 100 -52.5 156.5t-140.5 56.5q-111 0 -193.5 -87.5t-82.5 -217.5zM50 292q0 177 116 298.5t291 121.5q131 0 220.5 -81t89.5 -223 q0 -177 -116 -298.5t-291 -121.5q-131 0 -220.5 81t-89.5 223z" unicode="Ô"/>
<glyph glyph-name="Otilde" d="M174 304q0 -100 52.5 -156t141.5 -56q111 0 193 87t82 217q0 100 -52.5 156.5t-140.5 56.5q-111 0 -193.5 -87.5t-82.5 -217.5zM50 292q0 177 116 298.5t291 121.5q131 0 220.5 -81t89.5 -223q0 -177 -116 -298.5t-291 -121.5q-131 0 -220.5 81t-89.5 223zM309 756 q2 61 31 95.5t79 34.5q35 0 71 -27.5t51 -27.5q36 0 39 47h71q-3 -62 -32.5 -96t-79.5 -34q-34 0 -70 27t-51 27q-36 0 -38 -46h-71z" unicode="Õ"/>
<glyph glyph-name="Odieresis" d="M174 304q0 -100 52.5 -156t141.5 -56q111 0 193 87t82 217q0 100 -52.5 156.5t-140.5 56.5q-111 0 -193.5 -87.5t-82.5 -217.5zM50 292q0 177 116 298.5t291 121.5q131 0 220.5 -81t89.5 -223q0 -177 -116 -298.5t-291 -121.5q-131 0 -220.5 81t-89.5 223zM320 766 l18 102h103l-19 -102h-102zM531 766l19 102h101l-19 -102h-101z" unicode="Ö"/>
<glyph glyph-name="multiply" horiz-adv-x="585" unicode="×" d="M22 97l196 173l-135 172l79 66l133 -172l189 173l67 -77l-193 -173l133 -170l-81 -65l-129 169l-192 -172z"/>
<glyph glyph-name="Oslash" d="M174 304q0 -74 29 -124l366 391q-49 38 -119 38q-111 0 -193.5 -87.5t-82.5 -217.5zM643 396q0 74 -31 127l-368 -392q48 -39 124 -39q111 0 193 87t82 217zM50 292q0 177 116 298.5t291 121.5q108 0 187 -55l75 82l59 -52l-78 -81q67 -78 67 -198q0 -177 -116 -298.5 t-291 -121.5q-113 0 -192 57l-77 -83l-56 50l79 84q-64 78 -64 196z" unicode="Ø"/>
<glyph glyph-name="Ugrave" horiz-adv-x="711" unicode="Ù" d="M67 283l75 417h122l-77 -425q-6 -30 -6 -64q0 -59 37 -89.5t100 -30.5q71 0 123.5 45.5t67.5 133.5l75 430h121l-76 -437q-23 -133 -111 -204t-220 -71q-107 0 -172.5 57.5t-65.5 160.5q0 37 7 77zM402 755l-102 84l88 61l88 -145h-74z"/>
<glyph glyph-name="Uacute" horiz-adv-x="711" unicode="Ú" d="M67 283l75 417h122l-77 -425q-6 -30 -6 -64q0 -59 37 -89.5t100 -30.5q71 0 123.5 45.5t67.5 133.5l75 430h121l-76 -437q-23 -133 -111 -204t-220 -71q-107 0 -172.5 57.5t-65.5 160.5q0 37 7 77zM377 755l134 145l86 -61l-139 -84h-81z"/>
<glyph glyph-name="Ucircumflex" horiz-adv-x="711" unicode="Û" d="M253 755l142 124h112l96 -124h-73l-86 62h-2l-105 -62h-84zM67 283l75 417h122l-77 -425q-6 -30 -6 -64q0 -59 37 -89.5t100 -30.5q71 0 123.5 45.5t67.5 133.5l75 430h121l-76 -437q-23 -133 -111 -204t-220 -71q-107 0 -172.5 57.5t-65.5 160.5q0 37 7 77z"/>
<glyph glyph-name="Udieresis" horiz-adv-x="711" unicode="Ü" d="M67 283l75 417h122l-77 -425q-6 -30 -6 -64q0 -59 37 -89.5t100 -30.5q71 0 123.5 45.5t67.5 133.5l75 430h121l-76 -437q-23 -133 -111 -204t-220 -71q-107 0 -172.5 57.5t-65.5 160.5q0 37 7 77zM278 766l18 102h103l-19 -102h-102zM489 766l19 102h101l-19 -102h-101z "/>
<glyph glyph-name="Yacute" horiz-adv-x="679" unicode="Ý" d="M348 755l134 145l86 -61l-139 -84h-81zM224 0l50 283l-184 417h131l129 -299h2l231 299h145l-333 -419l-49 -281h-122z"/>
<glyph glyph-name="Thorn" horiz-adv-x="657" unicode="Þ" d="M181 217h122q88 0 138 43.5t50 113.5q0 58 -33.5 85t-107.5 27h-122zM20 0l124 700h121l-19 -115h120q119 0 183.5 -56t64.5 -148q0 -115 -80 -188.5t-245 -73.5h-127l-20 -119h-122z"/>
<glyph glyph-name="germandbls" horiz-adv-x="637" unicode="ß" d="M12 0l96 538q19 109 91.5 166.5t187.5 57.5q90 0 149.5 -52.5t59.5 -136.5q0 -69 -38.5 -117t-104.5 -71v-1q62 -16 94.5 -58.5t32.5 -105.5q0 -104 -75 -167t-186 -63q-61 0 -119 20l34 91q43 -16 82 -16q63 0 106 38t43 103q0 53 -34.5 81t-94.5 28h-45l19 95h22 q67 0 107.5 37t40.5 102q0 48 -28.5 76t-79.5 28q-56 0 -97.5 -38t-53.5 -104l-93 -531h-116z"/>
<glyph glyph-name="agrave" horiz-adv-x="600" unicode="à" d="M321 584l-114 126l85 60l105 -186h-76zM392 192l36 210q-54 48 -116 48q-70 0 -117 -67.5t-47 -168.5q0 -68 25.5 -101.5t67.5 -33.5q80 0 151 113zM214 -12q-78 0 -131 57.5t-53 159.5q0 144 77.5 240t192.5 96q46 0 85 -19t63 -48l15 55h103l-69 -389q-3 -18 -3 -26 q0 -33 41 -33l-14 -83q-120 0 -132 80q-71 -90 -175 -90z"/>
<glyph glyph-name="aacute" horiz-adv-x="600" unicode="á" d="M273 584l163 186l80 -60l-166 -126h-77zM392 192l36 210q-54 48 -116 48q-70 0 -117 -67.5t-47 -168.5q0 -68 25.5 -101.5t67.5 -33.5q80 0 151 113zM214 -12q-78 0 -131 57.5t-53 159.5q0 144 77.5 240t192.5 96q46 0 85 -19t63 -48l15 55h103l-69 -389q-3 -18 -3 -26 q0 -33 41 -33l-14 -83q-120 0 -132 80q-71 -90 -175 -90z"/>
<glyph glyph-name="acircumflex" horiz-adv-x="600" unicode="â" d="M163 584l152 160h114l94 -160h-73l-82 93h-2l-115 -93h-88zM392 192l36 210q-54 48 -116 48q-70 0 -117 -67.5t-47 -168.5q0 -68 25.5 -101.5t67.5 -33.5q80 0 151 113zM214 -12q-78 0 -131 57.5t-53 159.5q0 144 77.5 240t192.5 96q46 0 85 -19t63 -48l15 55h103 l-69 -389q-3 -18 -3 -26q0 -33 41 -33l-14 -83q-120 0 -132 80q-71 -90 -175 -90z"/>
<glyph glyph-name="atilde" horiz-adv-x="600" unicode="ã" d="M187 602q3 62 32 96.5t78 34.5q35 0 71 -27.5t51 -27.5q35 0 38 48h71q-3 -62 -32.5 -96.5t-79.5 -34.5q-34 0 -69 27t-50 27q-36 0 -39 -47h-71zM392 192l36 210q-54 48 -116 48q-70 0 -117 -67.5t-47 -168.5q0 -68 25.5 -101.5t67.5 -33.5q80 0 151 113zM214 -12 q-78 0 -131 57.5t-53 159.5q0 144 77.5 240t192.5 96q46 0 85 -19t63 -48l15 55h103l-69 -389q-3 -18 -3 -26q0 -33 41 -33l-14 -83q-120 0 -132 80q-71 -90 -175 -90z"/>
<glyph glyph-name="adieresis" horiz-adv-x="600" unicode="ä" d="M196 613l17 102h103l-18 -102h-102zM399 613l18 102h102l-18 -102h-102zM392 192l36 210q-54 48 -116 48q-70 0 -117 -67.5t-47 -168.5q0 -68 25.5 -101.5t67.5 -33.5q80 0 151 113zM214 -12q-78 0 -131 57.5t-53 159.5q0 144 77.5 240t192.5 96q46 0 85 -19t63 -48 l15 55h103l-69 -389q-3 -18 -3 -26q0 -33 41 -33l-14 -83q-120 0 -132 80q-71 -90 -175 -90z"/>
<glyph glyph-name="aring" horiz-adv-x="600" unicode="å" d="M295 679q0 -24 13.5 -38t38.5 -14q26 0 48 20.5t22 48.5q0 52 -54 52q-26 0 -47 -20t-21 -49zM240 675q0 52 36 87t92 35q43 0 72.5 -27.5t29.5 -69.5q0 -52 -35.5 -87t-92.5 -35q-42 0 -72 27.5t-30 69.5zM392 192l36 210q-54 48 -116 48q-70 0 -117 -67.5t-47 -168.5 q0 -68 25.5 -101.5t67.5 -33.5q80 0 151 113zM214 -12q-78 0 -131 57.5t-53 159.5q0 144 77.5 240t192.5 96q46 0 85 -19t63 -48l15 55h103l-69 -389q-3 -18 -3 -26q0 -33 41 -33l-14 -83q-120 0 -132 80q-71 -90 -175 -90z"/>
<glyph glyph-name="ae" horiz-adv-x="940" unicode="æ" d="M710 454q-53 0 -100.5 -36t-71.5 -96h68q96 0 139 21.5t43 54.5q0 24 -21 40t-57 16zM241 79q83 0 151 115l6 33q0 1 2.5 17.5t3.5 17.5l24 140q-52 48 -116 48q-70 0 -117 -67.5t-47 -168.5q0 -68 25.5 -101.5t67.5 -33.5zM219 -12q-81 0 -135 57.5t-54 159.5 q0 144 77.5 240t192.5 96q110 0 205 -89l-1 -2q83 91 216 91q83 0 133.5 -42t50.5 -101q0 -76 -82.5 -117.5t-223.5 -41.5h-77v-17q0 -140 123 -140q69 0 145 50l48 -80q-91 -64 -208 -64q-145 0 -192 127q-40 -58 -99.5 -92.5t-118.5 -34.5z"/>
<glyph glyph-name="ccedilla" horiz-adv-x="520" unicode="ç" d="M42 -177q114 78 155 171q-74 16 -121.5 75.5t-47.5 149.5q0 138 87.5 230t218.5 92q104 0 170 -66l-65 -71q-51 41 -116 41q-71 0 -123.5 -61t-52.5 -153q0 -70 32 -108.5t86 -38.5q63 0 127 50l59 -77q-75 -61 -172 -68q-40 -123 -151 -209z"/>
<glyph glyph-name="egrave" horiz-adv-x="567" unicode="è" d="M318 584l-114 126l85 60l105 -186h-76zM337 454q-54 0 -101 -35.5t-71 -96.5h68q95 0 138.5 21.5t43.5 54.5q0 24 -21 40t-57 16zM28 218q0 135 90.5 229t227.5 94q83 0 134 -42t51 -101q0 -77 -82.5 -118t-224.5 -41h-77v-17q0 -140 124 -140q71 0 147 48l45 -78 q-90 -64 -207 -64q-101 0 -164.5 62.5t-63.5 167.5z"/>
<glyph glyph-name="eacute" horiz-adv-x="567" unicode="é" d="M278 584l163 186l80 -60l-166 -126h-77zM337 454q-54 0 -101 -35.5t-71 -96.5h68q95 0 138.5 21.5t43.5 54.5q0 24 -21 40t-57 16zM28 218q0 135 90.5 229t227.5 94q83 0 134 -42t51 -101q0 -77 -82.5 -118t-224.5 -41h-77v-17q0 -140 124 -140q71 0 147 48l45 -78 q-90 -64 -207 -64q-101 0 -164.5 62.5t-63.5 167.5z"/>
<glyph glyph-name="ecircumflex" horiz-adv-x="567" unicode="ê" d="M337 454q-54 0 -101 -35.5t-71 -96.5h68q95 0 138.5 21.5t43.5 54.5q0 24 -21 40t-57 16zM160 584l152 160h114l94 -160h-73l-82 93h-2l-115 -93h-88zM28 218q0 135 90.5 229t227.5 94q83 0 134 -42t51 -101q0 -77 -82.5 -118t-224.5 -41h-77v-17q0 -140 124 -140 q71 0 147 48l45 -78q-90 -64 -207 -64q-101 0 -164.5 62.5t-63.5 167.5z"/>
<glyph glyph-name="edieresis" horiz-adv-x="567" unicode="ë" d="M397 613l18 102h102l-18 -102h-102zM194 613l17 102h103l-18 -102h-102zM337 454q-54 0 -101 -35.5t-71 -96.5h68q95 0 138.5 21.5t43.5 54.5q0 24 -21 40t-57 16zM28 218q0 135 90.5 229t227.5 94q83 0 134 -42t51 -101q0 -77 -82.5 -118t-224.5 -41h-77v-17 q0 -140 124 -140q71 0 147 48l45 -78q-90 -64 -207 -64q-101 0 -164.5 62.5t-63.5 167.5z"/>
<glyph glyph-name="igrave" horiz-adv-x="256" unicode="ì" d="M155 584l-114 126l85 60l105 -186h-76zM16 0l93 524h115l-92 -524h-116z"/>
<glyph glyph-name="iacute" horiz-adv-x="256" unicode="í" d="M16 0l93 524h115l-92 -524h-116zM114 584l163 186l80 -60l-166 -126h-77z"/>
<glyph glyph-name="icircumflex" horiz-adv-x="256" unicode="î" d="M16 0l93 524h115l-92 -524h-116zM-8 584l152 160h114l94 -160h-73l-82 93h-2l-115 -93h-88z"/>
<glyph glyph-name="idieresis" horiz-adv-x="256" unicode="ï" d="M16 0l93 524h115l-92 -524h-116zM27 613l17 102h103l-18 -102h-102zM230 613l18 102h102l-18 -102h-102z"/>
<glyph glyph-name="eth" horiz-adv-x="590" unicode="ð" d="M256 76q74 0 122 65t47 177q-52 61 -133 61q-60 0 -105 -49.5t-45 -125.5q0 -59 29.5 -93.5t84.5 -34.5zM216 534l-28 65l116 46q-43 51 -103 110h130q34 -36 64 -73l105 44l26 -67l-88 -36q101 -151 101 -313q0 -150 -81 -236t-216 -86q-98 0 -157.5 61t-59.5 154 q0 113 73.5 185t185.5 72q79 0 139 -49q-16 90 -76 177z"/>
<glyph glyph-name="ntilde" horiz-adv-x="584" unicode="ñ" d="M189 602q3 62 32 96.5t78 34.5q35 0 71 -27.5t51 -27.5q35 0 38 48h71q-3 -62 -32.5 -96.5t-79.5 -34.5q-34 0 -69 27t-50 27q-36 0 -39 -47h-71zM345 0l60 338q6 34 6 55q0 58 -57 58q-78 0 -168 -126l-57 -325h-116l92 529h96l-3 -91q82 101 188 101q66 0 103.5 -37.5 t37.5 -96.5q0 -35 -9 -85l-58 -320h-115z"/>
<glyph glyph-name="ograve" horiz-adv-x="603" unicode="ò" d="M322 584l-114 126l85 60l105 -186h-76zM268 79q71 0 123 68t52 159q0 70 -31.5 107t-88.5 37q-71 0 -123.5 -68.5t-52.5 -159.5q0 -70 31.5 -106.5t89.5 -36.5zM257 -12q-101 0 -164 63t-63 170q0 137 86.5 228.5t215.5 91.5q102 0 165 -63t63 -171q0 -137 -86.5 -228 t-216.5 -91z"/>
<glyph glyph-name="oacute" horiz-adv-x="603" unicode="ó" d="M268 79q71 0 123 68t52 159q0 70 -31.5 107t-88.5 37q-71 0 -123.5 -68.5t-52.5 -159.5q0 -70 31.5 -106.5t89.5 -36.5zM257 -12q-101 0 -164 63t-63 170q0 137 86.5 228.5t215.5 91.5q102 0 165 -63t63 -171q0 -137 -86.5 -228t-216.5 -91zM274 584l163 186l80 -60 l-166 -126h-77z"/>
<glyph glyph-name="ocircumflex" horiz-adv-x="603" unicode="ô" d="M268 79q71 0 123 68t52 159q0 70 -31.5 107t-88.5 37q-71 0 -123.5 -68.5t-52.5 -159.5q0 -70 31.5 -106.5t89.5 -36.5zM257 -12q-101 0 -164 63t-63 170q0 137 86.5 228.5t215.5 91.5q102 0 165 -63t63 -171q0 -137 -86.5 -228t-216.5 -91zM159 584l152 160h114l94 -160 h-73l-82 93h-2l-115 -93h-88z"/>
<glyph glyph-name="otilde" horiz-adv-x="603" unicode="õ" d="M188 602q3 62 32 96.5t78 34.5q35 0 71 -27.5t51 -27.5q35 0 38 48h71q-3 -62 -32.5 -96.5t-79.5 -34.5q-34 0 -69 27t-50 27q-36 0 -39 -47h-71zM268 79q71 0 123 68t52 159q0 70 -31.5 107t-88.5 37q-71 0 -123.5 -68.5t-52.5 -159.5q0 -70 31.5 -106.5t89.5 -36.5z M257 -12q-101 0 -164 63t-63 170q0 137 86.5 228.5t215.5 91.5q102 0 165 -63t63 -171q0 -137 -86.5 -228t-216.5 -91z"/>
<glyph glyph-name="odieresis" horiz-adv-x="603" unicode="ö" d="M268 79q71 0 123 68t52 159q0 70 -31.5 107t-88.5 37q-71 0 -123.5 -68.5t-52.5 -159.5q0 -70 31.5 -106.5t89.5 -36.5zM257 -12q-101 0 -164 63t-63 170q0 137 86.5 228.5t215.5 91.5q102 0 165 -63t63 -171q0 -137 -86.5 -228t-216.5 -91zM196 613l17 102h103l-18 -102 h-102zM399 613l18 102h102l-18 -102h-102z"/>
<glyph glyph-name="divide" horiz-adv-x="605" unicode="÷" d="M27 216l18 99h521l-19 -99h-520zM195 19l18 103h110l-17 -103h-111zM263 408l19 103h110l-18 -103h-111z"/>
<glyph glyph-name="oslash" horiz-adv-x="603" unicode="ø" d="M268 79q71 0 123 68t52 159q0 31 -8 60l-246 -261q29 -26 79 -26zM147 222q0 -38 9 -65l249 263q-31 30 -82 30q-71 0 -123.5 -68.5t-52.5 -159.5zM257 -12q-80 0 -137 40l-76 -80l-51 47l79 81q-42 59 -42 145q0 137 86.5 228.5t215.5 91.5q80 0 141 -43l73 78l54 -47 l-79 -81q39 -59 39 -141q0 -137 -86.5 -228t-216.5 -91z"/>
<glyph glyph-name="ugrave" horiz-adv-x="581" unicode="ù" d="M310 584l-114 126l85 60l105 -186h-76zM551 529l-93 -529h-93l2 90q-85 -102 -191 -102q-66 0 -102.5 37.5t-36.5 98.5q0 36 7 80l58 325h115l-60 -340q-5 -32 -5 -54q0 -57 57 -57q77 0 170 125l56 326h116z"/>
<glyph glyph-name="uacute" horiz-adv-x="581" unicode="ú" d="M551 529l-93 -529h-93l2 90q-85 -102 -191 -102q-66 0 -102.5 37.5t-36.5 98.5q0 36 7 80l58 325h115l-60 -340q-5 -32 -5 -54q0 -57 57 -57q77 0 170 125l56 326h116zM274 584l163 186l80 -60l-166 -126h-77z"/>
<glyph glyph-name="ucircumflex" horiz-adv-x="581" unicode="û" d="M551 529l-93 -529h-93l2 90q-85 -102 -191 -102q-66 0 -102.5 37.5t-36.5 98.5q0 36 7 80l58 325h115l-60 -340q-5 -32 -5 -54q0 -57 57 -57q77 0 170 125l56 326h116zM155 584l152 160h114l94 -160h-73l-82 93h-2l-115 -93h-88z"/>
<glyph glyph-name="udieresis" horiz-adv-x="581" unicode="ü" d="M551 529l-93 -529h-93l2 90q-85 -102 -191 -102q-66 0 -102.5 37.5t-36.5 98.5q0 36 7 80l58 325h115l-60 -340q-5 -32 -5 -54q0 -57 57 -57q77 0 170 125l56 326h116zM188 613l17 102h103l-18 -102h-102zM391 613l18 102h102l-18 -102h-102z"/>
<glyph glyph-name="yacute" horiz-adv-x="523" unicode="ý" d="M243 584l163 186l80 -60l-166 -126h-77zM-30 -96q36 -19 67 -19q51 0 85 62l31 56l-98 526h111l63 -381h2l190 381h122l-312 -594q-44 -84 -87.5 -114.5t-107.5 -30.5q-55 0 -108 31z"/>
<glyph glyph-name="thorn" horiz-adv-x="597" unicode="þ" d="M373 539q79 0 129.5 -57t50.5 -161q0 -145 -75.5 -238t-190.5 -93q-87 0 -146 66l-47 -256h-114l169 955h117l-54 -293q70 77 161 77zM154 133q48 -54 116 -54q76 0 120.5 71t44.5 171q0 128 -94 128q-75 0 -150 -106z"/>
<glyph glyph-name="OE" horiz-adv-x="1187" unicode="Œ" d="M174 304q0 -100 52.5 -156t141.5 -56q110 0 192.5 87t82.5 217q0 100 -52.5 156.5t-140.5 56.5q-110 0 -193 -87.5t-83 -217.5zM50 292q0 176 115.5 298t287.5 122q78 0 142.5 -33t90.5 -90l19 111h490l-19 -106h-368l-34 -189h330l-17 -98h-330l-36 -201h374l-19 -106 h-494l15 87q-101 -99 -244 -99q-126 0 -214.5 81t-88.5 223z"/>
<glyph glyph-name="oe" horiz-adv-x="974" unicode="œ" d="M268 79q71 0 123 68t52 159q0 70 -31.5 107t-88.5 37q-71 0 -123.5 -68.5t-52.5 -159.5q0 -70 31.5 -106.5t89.5 -36.5zM746 454q-53 0 -100.5 -36t-71.5 -96h68q96 0 139 21.5t43 54.5q0 24 -21 40t-57 16zM30 221q0 137 86.5 228.5t215.5 91.5q141 0 187 -116 q83 116 237 116q83 0 133.5 -42t50.5 -101q0 -76 -82.5 -117.5t-223.5 -41.5h-77q-1 -5 -1 -17q0 -140 124 -140q69 0 145 50l48 -80q-91 -64 -208 -64q-139 0 -187 113q-79 -113 -221 -113q-101 0 -164 63t-63 170z"/>
<glyph glyph-name="Scaron" horiz-adv-x="621" unicode="Š" d="M321 755l-96 124h74l84 -62h2l105 62h86l-143 -124h-112zM12 74l67 89q98 -68 195 -68q71 0 111 30.5t40 75.5q0 42 -29.5 61t-104.5 40q-7 2 -11 3q-41 12 -69.5 24t-59 33t-46.5 53.5t-16 75.5q0 95 74.5 158t202.5 63q124 0 233 -64l-57 -91q-90 49 -184 49 q-61 0 -101 -30t-40 -75q0 -17 7 -30.5t14.5 -21.5t29 -17.5t33.5 -13t46 -13.5q6 -2 10 -3q34 -10 56 -18t51 -24t46 -34.5t29.5 -48t12.5 -66.5q0 -98 -75 -160.5t-215 -62.5q-137 0 -250 86z"/>
<glyph glyph-name="scaron" horiz-adv-x="489" unicode="š" d="M-6 55l56 77q70 -53 152 -53q47 0 79 19t32 52q0 30 -27 45.5t-80 28.5q-151 37 -151 150q0 80 64.5 123t162.5 43q95 0 181 -52l-57 -78q-66 39 -135 39q-40 0 -70.5 -20t-30.5 -52q0 -29 28 -44.5t81 -27.5q70 -16 109 -48.5t39 -96.5q0 -83 -64 -127.5t-172 -44.5 q-105 0 -197 67zM231 584l-95 160h70l85 -96h2l118 96h84l-150 -160h-114z"/>
<glyph glyph-name="Ydieresis" horiz-adv-x="679" unicode="Ÿ" d="M256 766l18 102h103l-19 -102h-102zM467 766l19 102h101l-19 -102h-101zM224 0l50 283l-184 417h131l129 -299h2l231 299h145l-333 -419l-49 -281h-122z"/>
<glyph glyph-name="circumflex" horiz-adv-x="628" unicode="ˆ" d="M190 584l152 160h114l94 -160h-73l-82 93h-2l-115 -93h-88z"/>
<glyph glyph-name="tilde" horiz-adv-x="623" unicode="˜" d="M208 602q3 62 32 96.5t78 34.5q35 0 71 -27.5t51 -27.5q35 0 38 48h71q-3 -62 -32.5 -96.5t-79.5 -34.5q-34 0 -69 27t-50 27q-36 0 -39 -47h-71z"/>
<glyph glyph-name="pi" horiz-adv-x="760" unicode="π" d="M729 458h-139l-47 -266q-4 -19 -4 -38q0 -35 21.5 -49t71.5 -14l-18 -95q-192 0 -192 150q0 22 5 55l45 257h-140l-81 -458h-118l81 458h-132l18 98h647z"/>
<glyph glyph-name="enspace" horiz-adv-x="496" unicode=" "/>
<glyph glyph-name="emspace" horiz-adv-x="992" unicode=" "/>
<glyph glyph-name="thinspace" horiz-adv-x="99" unicode=" "/>
<glyph glyph-name="endash" horiz-adv-x="602" unicode="–" d="M26 215l18 101h519l-18 -101h-519z"/>
<glyph glyph-name="emdash" horiz-adv-x="894" unicode="—" d="M28 215l19 101h804l-18 -101h-805z"/>
<glyph glyph-name="quoteleft" horiz-adv-x="228" unicode="‘" d="M223 552l-23 -132h-132l15 85q15 88 44.5 130.5t99.5 68.5l21 -48q-73 -30 -86 -104h61z"/>
<glyph glyph-name="quotesinglbase" horiz-adv-x="229" unicode="‚" d="M-6 0l23 132h132l-15 -85q-15 -88 -44.5 -130.5t-99.5 -68.5l-21 48q73 30 86 104h-61z"/>
<glyph glyph-name="quotedblleft" horiz-adv-x="438" unicode="“" d="M440 552l-23 -132h-132l15 85q15 88 44.5 130.5t99.5 68.5l21 -48q-73 -30 -86 -104h61zM223 552l-23 -132h-132l15 85q15 88 44.5 130.5t99.5 68.5l21 -48q-73 -30 -86 -104h61z"/>
<glyph glyph-name="quotedblright" horiz-adv-x="440" unicode="”" d="M311 567l23 132h132l-15 -85q-15 -88 -44.5 -130.5t-99.5 -68.5l-21 48q73 30 86 104h-61zM94 567l23 132h132l-15 -85q-15 -88 -44.5 -130.5t-99.5 -68.5l-21 48q73 30 86 104h-61z"/>
<glyph glyph-name="dagger" horiz-adv-x="469" unicode="†" d="M172 272l24 132l39 126l-73 -11h-74l18 101h74l69 -11l6 132l3 14h111l-2 -14l-41 -132l74 11h74l-18 -101h-75l-69 12l-5 -127l-23 -132h-112z"/>
<glyph glyph-name="daggerdbl" horiz-adv-x="469" unicode="‡" d="M139 84l21 117l36 110l-72 -12h-74l17 101h74l70 -10l2 80l27 82l-74 -11h-74l18 101h74l69 -11l2 110l3 14h111l-2 -14l-37 -109l74 10h74l-18 -101h-75l-68 12l-2 -83l-27 -81l73 11h74l-17 -101h-75l-70 12l-2 -110l-20 -117h-112z"/>
<glyph glyph-name="ellipsis" horiz-adv-x="726" unicode="…" d="M505 0l23 132h132l-23 -132h-132zM249 0l23 132h132l-23 -132h-132zM-6 0l23 132h132l-23 -132h-132z"/>
<glyph glyph-name="perthousand" horiz-adv-x="1132" unicode="‰" d="M489 124q0 -31 16 -49.5t46 -18.5q36 0 63 28.5t27 65.5q0 31 -16 49t-46 18q-36 0 -63 -28t-27 -65zM410 118q0 70 51.5 118t127.5 48q57 0 94.5 -35.5t37.5 -91.5q0 -71 -51.5 -119t-128.5 -48q-57 0 -94 35.5t-37 92.5zM127 406q0 -31 16 -49.5t46 -18.5q36 0 63 28.5 t27 65.5q0 31 -16 49t-46 18q-36 0 -63 -28t-27 -65zM48 400q0 70 51.5 118t127.5 48q57 0 94.5 -35.5t37.5 -91.5q0 -71 -51.5 -119t-128.5 -48q-57 0 -94 35.5t-37 92.5zM580 556h89l-478 -556h-90zM841 124q0 -31 16 -49.5t46 -18.5q36 0 63 28.5t27 65.5q0 31 -16 49 t-46 18q-36 0 -63 -28t-27 -65zM762 118q0 70 51.5 118t127.5 48q57 0 94.5 -35.5t37.5 -91.5q0 -71 -51.5 -119t-128.5 -48q-57 0 -94 35.5t-37 92.5z"/>
<glyph glyph-name="guilsinglleft" horiz-adv-x="370" unicode="‹" d="M279 57l-85 -57l-163 266l228 264l77 -64l-186 -208z"/>
<glyph glyph-name="guilsinglright" horiz-adv-x="370" unicode="›" d="M69 474l86 56l163 -264l-228 -266l-77 65l186 210z"/>
<glyph glyph-name="fraction" horiz-adv-x="655" unicode="⁄" d="M-65 0l696 700h93l-696 -700h-93z"/>
<glyph glyph-name="Euro" horiz-adv-x="633" unicode="€" d="M27 314l13 72h85q39 84 118 133t180 49q124 0 195 -83l-74 -66q-48 53 -124 53q-107 0 -169 -91h168l-12 -67h-188q-10 -33 -10 -72v-1h186l-13 -66h-164q30 -91 136 -91q77 0 140 60l66 -69q-92 -87 -219 -87q-89 0 -153.5 49t-85.5 133h-101l14 71h79q0 39 7 73h-74z "/>
<glyph glyph-name="trademark" horiz-adv-x="866" unicode="™" d="M164 330l52 296h-125l14 74h333l-13 -74h-124l-52 -296h-85zM435 330l65 370h78l83 -145l129 145h92l-65 -370h-85l43 243l-128 -141l-84 143l-43 -245h-85z"/>
<glyph glyph-name="uni2190" horiz-adv-x="900" unicode="←" d="M75 296l327 291l65 -75l-199 -172l206 6h324v-100h-324l-206 5l201 -171l-67 -75z"/>
<glyph glyph-name="uni2191" horiz-adv-x="900" unicode="↑" d="M238 261l-75 64l291 328l291 -328l-75 -64l-171 199l5 -207v-323h-100v323l6 207z"/>
<glyph glyph-name="uni2192" horiz-adv-x="900" unicode="→" d="M500 587l327 -291l-327 -291l-67 75l201 171l-206 -5h-324v100h324l206 -6l-199 172z"/>
<glyph glyph-name="uni2193" horiz-adv-x="900" unicode="↓" d="M155 257l75 64l172 -199l-6 207v323h100v-323l-5 -207l171 199l75 -64l-291 -328z"/>
<glyph glyph-name="partialdiff" horiz-adv-x="618" unicode="∂" d="M275 83q66 0 115.5 55.5t64.5 169.5q-61 63 -150 63q-60 0 -103 -47t-43 -120q0 -121 116 -121zM575 386q0 -195 -89 -296.5t-221 -101.5q-102 0 -163.5 59t-61.5 155q0 113 72.5 186t179.5 73q99 0 169 -61q-1 124 -30.5 170.5t-101.5 46.5q-69 0 -166 -39l-32 87 q44 18 105 32.5t107 14.5q116 0 174 -75t58 -251z"/>
<glyph glyph-name="product" horiz-adv-x="823" unicode="∏" d="M816 603h-129l-106 -603h-117l107 603h-216l-107 -603h-117l107 603h-129l17 97h708z"/>
<glyph glyph-name="summation" horiz-adv-x="663" unicode="∑" d="M549 0h-547l14 79l311 280l-200 270l13 71h522l-17 -97h-370l188 -259l-276 -247h380z"/>
<glyph glyph-name="minus" horiz-adv-x="605" unicode="−" d="M27 216l18 99h521l-19 -99h-520z"/>
<glyph glyph-name="radical" horiz-adv-x="754" unicode="√" d="M48 359l-21 99l244 89l46 -368l381 521h127l-525 -712h-64l-50 420z"/>
<glyph glyph-name="infinity" horiz-adv-x="812" unicode="∞" d="M448 265q16 -46 44.5 -76.5t64.5 -30.5q40 0 71.5 36t31.5 91q0 41 -18 64t-49 23q-68 0 -145 -107zM138 244q0 -41 18 -63.5t49 -22.5q68 0 145 107q-16 46 -44.5 76.5t-64.5 30.5q-40 0 -71.5 -36.5t-31.5 -91.5zM32 234q0 101 60 166t151 65q108 0 163 -130 q48 65 93 97.5t110 32.5q68 0 112.5 -45.5t44.5 -124.5q0 -100 -60 -165t-151 -65q-109 0 -163 130q-48 -65 -93 -97.5t-110 -32.5q-69 0 -113 45t-44 124z"/>
<glyph glyph-name="approxequal" horiz-adv-x="605" unicode="≈" d="M-2 58q7 75 45.5 121.5t112.5 46.5q47 0 88 -20.5t76.5 -41t69.5 -20.5q29 0 45.5 18.5t18.5 48.5h91q-5 -75 -44.5 -122.5t-113.5 -47.5q-36 0 -70 13t-56 28.5t-51 28.5t-56 13q-57 0 -64 -66h-92zM45 318q7 75 45.5 122.5t111.5 47.5q47 0 88 -21t76.5 -41.5 t69.5 -20.5q28 0 44.5 18t19.5 49h91q-5 -75 -44 -122t-113 -47q-37 0 -71 13t-55.5 28t-50 28t-55.5 13q-29 0 -46 -18.5t-19 -48.5h-92z"/>
<glyph glyph-name="notequal" horiz-adv-x="605" unicode="≠" d="M49 337l18 99h325l80 94h88l-78 -94h106l-19 -99h-170l-121 -144h267l-19 -99h-330l-81 -94h-89l80 94h-100l18 99h166l121 144h-262z"/>
<glyph glyph-name="lessequal" horiz-adv-x="629" unicode="≤" d="M-18 0l14 82h538l-507 172l20 117l566 159l-20 -114l-391 -111l351 -118l-19 -105l-14 -82h-538z"/>
<glyph glyph-name="greaterequal" horiz-adv-x="629" unicode="≥" d="M537 0h-537l15 82h536zM15 82l20 110l391 118l-352 111l19 109l509 -159l-20 -117z"/>
<glyph glyph-name="lozenge" horiz-adv-x="631" unicode="◊" d="M76 351l250 364l251 -364l-251 -364zM174 351l153 -224l154 224l-154 225z"/>
</font>
</defs>
</svg>
